M48
;DRILL file {KiCad 4.0.4-stable} date 07/27/17 22:09:29
;FORMAT={-:-/ absolute / inch / decimal}
FMAT,2
INCH,TZ
T1C0.010
T2C0.010
T3C0.016
T4C0.039
%
G90
G05
M72
T1
X4.1925Y-3.3725
X4.22Y-3.3725
T2
X4.1871Y-4.113
X4.1871Y-4.175
T3
X4.135Y-3.454
X4.21Y-3.6207
X4.2275Y-3.9825
X4.24Y-3.65
X4.2722Y-3.98
X4.3025Y-4.1175
X4.425Y-3.37
X4.5384Y-4.1275
T4
X3.555Y-4.0275
X3.5575Y-4.175
X3.5575Y-4.275
X3.5975Y-3.34
X3.5975Y-3.44
X3.6Y-3.1725
X3.7525Y-3.555
X4.695Y-4.3275
X4.695Y-4.4275
X4.815Y-3.1675
X4.8525Y-3.3375
X4.8525Y-3.4375
X4.8675Y-4.3275
T0
M30
