G04 #@! TF.FileFunction,Copper,L1,Top,Signal*
%FSLAX46Y46*%
G04 Gerber Fmt 4.6, Leading zero omitted, Abs format (unit mm)*
G04 Created by KiCad (PCBNEW 4.0.4-stable) date 07/27/17 22:09:25*
%MOMM*%
%LPD*%
G01*
G04 APERTURE LIST*
%ADD10C,0.100000*%
%ADD11R,1.200000X0.750000*%
%ADD12R,1.500000X1.250000*%
%ADD13R,1.250000X1.500000*%
%ADD14R,0.750000X1.200000*%
%ADD15R,1.700000X2.000000*%
%ADD16R,2.000000X1.600000*%
%ADD17R,0.900000X1.200000*%
%ADD18R,2.200000X6.300000*%
%ADD19R,2.150000X6.300000*%
%ADD20R,1.200000X0.900000*%
%ADD21R,1.300000X1.400000*%
%ADD22C,2.000000*%
%ADD23R,2.000000X1.700000*%
%ADD24R,1.700000X1.700000*%
%ADD25O,1.700000X1.700000*%
%ADD26R,1.380000X0.450000*%
%ADD27R,2.100000X1.475000*%
%ADD28R,1.900000X2.375000*%
%ADD29R,0.300000X0.700000*%
%ADD30R,1.600200X1.016000*%
%ADD31R,0.850000X0.280000*%
%ADD32R,1.600000X2.500000*%
%ADD33C,0.508000*%
%ADD34C,0.600000*%
%ADD35C,0.400000*%
%ADD36C,0.250000*%
%ADD37C,0.550000*%
%ADD38C,0.400000*%
%ADD39C,2.000000*%
%ADD40C,1.000000*%
%ADD41C,0.254000*%
G04 APERTURE END LIST*
D10*
D11*
X104968000Y-102171500D03*
X106868000Y-102171500D03*
D12*
X101937500Y-110299500D03*
X104437500Y-110299500D03*
D11*
X102174000Y-108394500D03*
X104074000Y-108394500D03*
D13*
X103759000Y-84836000D03*
X103759000Y-87336000D03*
D14*
X102806500Y-103947000D03*
X102806500Y-102047000D03*
X109982000Y-91056500D03*
X109982000Y-89156500D03*
D11*
X110868500Y-102171500D03*
X108968500Y-102171500D03*
X114874000Y-99822000D03*
X116774000Y-99822000D03*
D15*
X115951000Y-84804500D03*
X115951000Y-88804500D03*
X118808500Y-84804500D03*
X118808500Y-88804500D03*
D12*
X111930500Y-109601000D03*
X109430500Y-109601000D03*
D16*
X112744000Y-120269000D03*
X108744000Y-120269000D03*
X112744000Y-122872500D03*
X108744000Y-122872500D03*
X112744000Y-125539500D03*
X108744000Y-125539500D03*
X112775500Y-128143000D03*
X108775500Y-128143000D03*
D17*
X113346500Y-84772500D03*
X110046500Y-84772500D03*
D18*
X108022500Y-79438500D03*
X103822500Y-79438500D03*
D19*
X112811200Y-114782600D03*
X108661200Y-114782600D03*
D17*
X101092000Y-103611500D03*
X101092000Y-105811500D03*
X108267500Y-89006500D03*
X108267500Y-91206500D03*
D20*
X115590500Y-102108000D03*
X113390500Y-102108000D03*
D17*
X104267000Y-89578000D03*
X104267000Y-91778000D03*
X106045000Y-91778000D03*
X106045000Y-89578000D03*
D20*
X113390500Y-103822500D03*
X115590500Y-103822500D03*
X106319500Y-93726000D03*
X104119500Y-93726000D03*
D17*
X117729000Y-104033500D03*
X117729000Y-101833500D03*
D21*
X109855000Y-106934000D03*
X112755000Y-106934000D03*
D22*
X95313500Y-90297000D03*
X91440000Y-80581500D03*
X122301000Y-80454500D03*
X123634500Y-109918500D03*
D23*
X98139000Y-105918000D03*
X94139000Y-105918000D03*
X100742500Y-84836000D03*
X96742500Y-84836000D03*
D24*
X91376500Y-87376000D03*
D25*
X91376500Y-84836000D03*
D24*
X123253500Y-84772500D03*
D25*
X123253500Y-87312500D03*
D24*
X119253000Y-109918500D03*
D25*
X119253000Y-112458500D03*
D26*
X86292500Y-87524900D03*
X86292500Y-86874900D03*
X86292500Y-86224900D03*
X86292500Y-85574900D03*
X86292500Y-84924900D03*
D27*
X85936900Y-88696800D03*
X85936900Y-83743800D03*
D28*
X83629500Y-83286600D03*
X83629500Y-89141300D03*
D26*
X86258400Y-108670400D03*
X86258400Y-108020400D03*
X86258400Y-107370400D03*
X86258400Y-106720400D03*
X86258400Y-106070400D03*
D27*
X85902800Y-109842300D03*
X85902800Y-104889300D03*
D28*
X83595400Y-104432100D03*
X83595400Y-110286800D03*
D24*
X90360500Y-108585000D03*
D25*
X90360500Y-106045000D03*
D22*
X90297000Y-102298500D03*
D29*
X106284001Y-86931500D03*
X106934000Y-86931500D03*
X107583999Y-86931500D03*
X107583999Y-84831500D03*
X106934000Y-84831500D03*
X106284001Y-84831500D03*
D30*
X106934000Y-85881500D03*
D31*
X104902000Y-104232199D03*
X104902000Y-104732201D03*
X104902000Y-105232200D03*
X104902000Y-105732199D03*
X104902000Y-106232201D03*
X107852002Y-106232201D03*
X107852002Y-105732199D03*
X107852002Y-105232200D03*
X107852002Y-104732201D03*
X107852002Y-104232199D03*
D32*
X106351601Y-105257600D03*
D33*
X106351601Y-104470200D03*
X106351601Y-106045000D03*
D34*
X108514000Y-101092000D03*
X107378500Y-101155500D03*
D35*
X107188000Y-85661500D03*
X106489500Y-85661500D03*
D34*
X105029000Y-87731000D03*
X106934000Y-91967000D03*
X109283500Y-104584500D03*
X115274500Y-104838500D03*
X112395000Y-85598000D03*
X107696000Y-92710000D03*
D36*
X104849399Y-104232199D02*
X104849399Y-102290101D01*
X104849399Y-102290101D02*
X104968000Y-102171500D01*
X108968500Y-102171500D02*
X108968500Y-101546500D01*
X108968500Y-101546500D02*
X108514000Y-101092000D01*
X107259000Y-101155500D02*
X107378500Y-101155500D01*
X106868000Y-102171500D02*
X106868000Y-101546500D01*
X106868000Y-101546500D02*
X107259000Y-101155500D01*
X107799401Y-105732199D02*
X106773599Y-105732199D01*
X106773599Y-105732199D02*
X106299000Y-105257600D01*
X104849399Y-104732201D02*
X106036999Y-104732201D01*
X106036999Y-104732201D02*
X106299000Y-104470200D01*
X106299000Y-104470200D02*
X106299000Y-102740500D01*
X106299000Y-102740500D02*
X106868000Y-102171500D01*
D37*
X86258400Y-108670400D02*
X88858400Y-108670400D01*
D36*
X104849399Y-104732201D02*
X104174399Y-104732201D01*
X104174399Y-104732201D02*
X103759000Y-104316802D01*
X103759000Y-104316802D02*
X103759000Y-102374500D01*
X103759000Y-102374500D02*
X103431500Y-102047000D01*
X103431500Y-102047000D02*
X102806500Y-102047000D01*
X103759000Y-87336000D02*
X104634000Y-87336000D01*
X104634000Y-87336000D02*
X105029000Y-87731000D01*
X106045000Y-91778000D02*
X106745000Y-91778000D01*
X106745000Y-91778000D02*
X106934000Y-91967000D01*
D37*
X86448900Y-87524900D02*
X91227600Y-87524900D01*
D36*
X91227600Y-87524900D02*
X91376500Y-87376000D01*
X101171301Y-105732199D02*
X101092000Y-105811500D01*
D38*
X106934000Y-84768000D02*
X106284001Y-84768000D01*
X106284001Y-84768000D02*
X103827000Y-84768000D01*
D36*
X103827000Y-84768000D02*
X103759000Y-84836000D01*
D39*
X103759000Y-84836000D02*
X100742500Y-84836000D01*
X103822500Y-79438500D02*
X103822500Y-84772500D01*
D36*
X103822500Y-84772500D02*
X103759000Y-84836000D01*
X102806500Y-103947000D02*
X101427500Y-103947000D01*
X101427500Y-103947000D02*
X101092000Y-103611500D01*
X103086711Y-105182211D02*
X102806500Y-104902000D01*
X102806500Y-104902000D02*
X102806500Y-103947000D01*
X104849399Y-105232200D02*
X104174399Y-105232200D01*
X104174399Y-105232200D02*
X104124410Y-105182211D01*
X104124410Y-105182211D02*
X103086711Y-105182211D01*
X108267500Y-91206500D02*
X109832000Y-91206500D01*
X109832000Y-91206500D02*
X109982000Y-91056500D01*
X109056998Y-103886000D02*
X110299500Y-103886000D01*
X110299500Y-103886000D02*
X110868500Y-103317000D01*
X107799401Y-104232199D02*
X108710799Y-104232199D01*
X108710799Y-104232199D02*
X109056998Y-103886000D01*
X110868500Y-102171500D02*
X113327000Y-102171500D01*
X113327000Y-102171500D02*
X113390500Y-102108000D01*
X110868500Y-103317000D02*
X110868500Y-102171500D01*
X109283500Y-104584500D02*
X109135799Y-104732201D01*
X109135799Y-104732201D02*
X107799401Y-104732201D01*
X115590500Y-103822500D02*
X115590500Y-104522500D01*
X115590500Y-104522500D02*
X115274500Y-104838500D01*
X115590500Y-102108000D02*
X115590500Y-100538500D01*
X115590500Y-100538500D02*
X114874000Y-99822000D01*
X115590500Y-102108000D02*
X115590500Y-103822500D01*
X117729000Y-101833500D02*
X117729000Y-100552000D01*
X117729000Y-100552000D02*
X116999000Y-99822000D01*
X116999000Y-99822000D02*
X116774000Y-99822000D01*
X122301000Y-80454500D02*
X122301000Y-83820000D01*
X122301000Y-83820000D02*
X123253500Y-84772500D01*
X112395000Y-85598000D02*
X112521000Y-85598000D01*
X112521000Y-85598000D02*
X113346500Y-84772500D01*
X107696000Y-93199500D02*
X107696000Y-92710000D01*
X106319500Y-93726000D02*
X107169500Y-93726000D01*
X107169500Y-93726000D02*
X107696000Y-93199500D01*
D40*
X119253000Y-109918500D02*
X123634500Y-109918500D01*
X112755000Y-106934000D02*
X117368500Y-106934000D01*
X117368500Y-106934000D02*
X119253000Y-108818500D01*
X119253000Y-108818500D02*
X119253000Y-109918500D01*
D36*
X113390500Y-103822500D02*
X113390500Y-106298500D01*
X113390500Y-106298500D02*
X112755000Y-106934000D01*
X111506000Y-103822500D02*
X110096300Y-105232200D01*
X110096300Y-105232200D02*
X107799401Y-105232200D01*
X113390500Y-103822500D02*
X111506000Y-103822500D01*
X108022500Y-79438500D02*
X108022500Y-81488500D01*
X108022500Y-81488500D02*
X110046500Y-83512500D01*
X110046500Y-83512500D02*
X110046500Y-83922500D01*
X110046500Y-83922500D02*
X110046500Y-84772500D01*
D38*
X107583999Y-84768000D02*
X110042000Y-84768000D01*
D36*
X110042000Y-84768000D02*
X110046500Y-84772500D01*
X110680500Y-110744000D02*
X110680500Y-108709500D01*
X110680500Y-108709500D02*
X109855000Y-107884000D01*
X109855000Y-107884000D02*
X109855000Y-106934000D01*
X110744000Y-110807500D02*
X110680500Y-110744000D01*
X110744000Y-114040400D02*
X110744000Y-110807500D01*
X112811200Y-114782600D02*
X111486200Y-114782600D01*
X111486200Y-114782600D02*
X110744000Y-114040400D01*
X106934000Y-88373000D02*
X106934000Y-86868000D01*
X108267500Y-89006500D02*
X107567500Y-89006500D01*
X107567500Y-89006500D02*
X106934000Y-88373000D01*
X106045000Y-89578000D02*
X104267000Y-89578000D01*
X106284001Y-86868000D02*
X106284001Y-89338999D01*
X106284001Y-89338999D02*
X106045000Y-89578000D01*
X104267000Y-91778000D02*
X104267000Y-93578500D01*
X104267000Y-93578500D02*
X104119500Y-93726000D01*
X91440000Y-80581500D02*
X91440000Y-84772500D01*
X91440000Y-84772500D02*
X91376500Y-84836000D01*
D37*
X86448900Y-84924900D02*
X91287600Y-84924900D01*
D36*
X91287600Y-84924900D02*
X91376500Y-84836000D01*
D37*
X90360500Y-106045000D02*
X94012000Y-106045000D01*
D36*
X94012000Y-106045000D02*
X94139000Y-105918000D01*
X90297000Y-102298500D02*
X90297000Y-105981500D01*
X90297000Y-105981500D02*
X90360500Y-106045000D01*
D37*
X86258400Y-106070400D02*
X90335100Y-106070400D01*
D36*
X90335100Y-106070400D02*
X90360500Y-106045000D01*
D41*
X89662000Y-82994500D02*
X97726500Y-82994500D01*
X89662000Y-83197700D02*
X97726500Y-83197700D01*
X89662000Y-83400900D02*
X97726500Y-83400900D01*
X89662000Y-83604100D02*
X97726500Y-83604100D01*
X89662000Y-83807300D02*
X97726500Y-83807300D01*
X89662000Y-84010500D02*
X97726500Y-84010500D01*
X89662000Y-84213700D02*
X97726500Y-84213700D01*
X89662000Y-84416900D02*
X97726500Y-84416900D01*
X89662000Y-84620100D02*
X97726500Y-84620100D01*
X89662000Y-84823300D02*
X97726500Y-84823300D01*
X89662000Y-85026500D02*
X97726500Y-85026500D01*
X89662000Y-85229700D02*
X97726500Y-85229700D01*
X89662000Y-85432900D02*
X97726500Y-85432900D01*
X89662000Y-85636100D02*
X97726500Y-85636100D01*
X97726500Y-85788500D02*
X89662000Y-85788500D01*
X89662000Y-82994500D01*
X97726500Y-82994500D01*
X97726500Y-85788500D01*
X106997500Y-81837203D02*
X106997500Y-81837203D01*
X106997500Y-82040403D02*
X107607099Y-82040403D01*
X106997500Y-82243603D02*
X108216699Y-82243603D01*
X107066598Y-82446803D02*
X108826299Y-82446803D01*
X107256546Y-82650003D02*
X109435899Y-82650003D01*
X107446494Y-82853203D02*
X109826374Y-82853203D01*
X107636441Y-83056403D02*
X109869917Y-83056403D01*
X107826389Y-83259603D02*
X109913460Y-83259603D01*
X108016337Y-83462803D02*
X109957003Y-83462803D01*
X108206285Y-83666003D02*
X110000546Y-83666003D01*
X108396233Y-83869203D02*
X110044089Y-83869203D01*
X108586181Y-84072403D02*
X110087632Y-84072403D01*
X108776129Y-84275603D02*
X110131174Y-84275603D01*
X108966077Y-84478803D02*
X110174717Y-84478803D01*
X109156024Y-84682003D02*
X110218260Y-84682003D01*
X109345972Y-84885203D02*
X110261803Y-84885203D01*
X109535920Y-85088403D02*
X110305346Y-85088403D01*
X109809519Y-82774543D02*
X110332903Y-85217000D01*
X109656130Y-85217000D01*
X106997500Y-82372885D01*
X106997500Y-81837203D01*
X109809519Y-82774543D01*
X112649000Y-83312000D02*
X125158500Y-83312000D01*
X112649000Y-83515200D02*
X125158500Y-83515200D01*
X112649000Y-83718400D02*
X125158500Y-83718400D01*
X112649000Y-83921600D02*
X125158500Y-83921600D01*
X112649000Y-84124800D02*
X125158500Y-84124800D01*
X112649000Y-84328000D02*
X125158500Y-84328000D01*
X112649000Y-84531200D02*
X125158500Y-84531200D01*
X112649000Y-84734400D02*
X125158500Y-84734400D01*
X112649000Y-84937600D02*
X125158500Y-84937600D01*
X112649000Y-85140800D02*
X125158500Y-85140800D01*
X112649000Y-85344000D02*
X125158500Y-85344000D01*
X112649000Y-85547200D02*
X125158500Y-85547200D01*
X125158500Y-85661500D02*
X112649000Y-85661500D01*
X112649000Y-83312000D01*
X125158500Y-83312000D01*
X125158500Y-85661500D01*
X88582500Y-104330500D02*
X95377000Y-104330500D01*
X88582500Y-104533700D02*
X95377000Y-104533700D01*
X88582500Y-104736900D02*
X95377000Y-104736900D01*
X88582500Y-104940100D02*
X95377000Y-104940100D01*
X88582500Y-105143300D02*
X95377000Y-105143300D01*
X88582500Y-105346500D02*
X95377000Y-105346500D01*
X88582500Y-105549700D02*
X95377000Y-105549700D01*
X88582500Y-105752900D02*
X95377000Y-105752900D01*
X88582500Y-105956100D02*
X95377000Y-105956100D01*
X88582500Y-106159300D02*
X95377000Y-106159300D01*
X88582500Y-106362500D02*
X95377000Y-106362500D01*
X88582500Y-106565700D02*
X95377000Y-106565700D01*
X88582500Y-106768900D02*
X95377000Y-106768900D01*
X88582500Y-106972100D02*
X95377000Y-106972100D01*
X95377000Y-106997500D02*
X88582500Y-106997500D01*
X88582500Y-104330500D01*
X95377000Y-104330500D01*
X95377000Y-106997500D01*
X96710500Y-104838500D02*
X101737894Y-104838500D01*
X96710500Y-105041700D02*
X101941094Y-105041700D01*
X96710500Y-105244900D02*
X102144294Y-105244900D01*
X96710500Y-105448100D02*
X102347494Y-105448100D01*
X96710500Y-105651300D02*
X102550694Y-105651300D01*
X96710500Y-105854500D02*
X105116236Y-105854500D01*
X96710500Y-106057700D02*
X105116236Y-106057700D01*
X96710500Y-106260900D02*
X105116236Y-106260900D01*
X96710500Y-106464100D02*
X105116236Y-106464100D01*
X96710500Y-106667300D02*
X104886103Y-106667300D01*
X96710500Y-106870500D02*
X104606703Y-106870500D01*
X96710500Y-107073700D02*
X104327303Y-107073700D01*
X96710500Y-107276900D02*
X104047903Y-107276900D01*
X96801206Y-107480100D02*
X102874780Y-107480100D01*
X97004406Y-107683300D02*
X102870000Y-107683300D01*
X97207606Y-107886500D02*
X102870000Y-107886500D01*
X97410806Y-108089700D02*
X102870000Y-108089700D01*
X97614006Y-108292900D02*
X102870000Y-108292900D01*
X97817206Y-108496100D02*
X102870000Y-108496100D01*
X98020406Y-108699300D02*
X102870000Y-108699300D01*
X98223606Y-108902500D02*
X102870000Y-108902500D01*
X98426806Y-109105700D02*
X102870000Y-109105700D01*
X98630006Y-109308900D02*
X102870000Y-109308900D01*
X98833206Y-109512100D02*
X102870000Y-109512100D01*
X99036406Y-109715300D02*
X102870000Y-109715300D01*
X99239606Y-109918500D02*
X102870000Y-109918500D01*
X99442806Y-110121700D02*
X102870000Y-110121700D01*
X99646006Y-110324900D02*
X102870000Y-110324900D01*
X99849206Y-110528100D02*
X102870000Y-110528100D01*
X100052406Y-110731300D02*
X102870000Y-110731300D01*
X100255606Y-110934500D02*
X102870000Y-110934500D01*
X100458806Y-111137700D02*
X102870000Y-111137700D01*
X102653197Y-105753803D02*
X102695211Y-105781666D01*
X102744754Y-105790988D01*
X102794022Y-105780300D01*
X102835249Y-105751287D01*
X102861941Y-105708520D01*
X102865601Y-105685600D01*
X102875469Y-105692193D01*
X103086711Y-105734211D01*
X103951228Y-105734211D01*
X103963157Y-105742182D01*
X104174399Y-105784200D01*
X104361622Y-105784200D01*
X104477000Y-105807565D01*
X105116236Y-105807565D01*
X105116236Y-106499930D01*
X103908202Y-107378500D01*
X102997000Y-107378500D01*
X102947590Y-107388506D01*
X102905965Y-107416947D01*
X102878685Y-107459341D01*
X102870000Y-107505500D01*
X102870000Y-111252000D01*
X100573106Y-111252000D01*
X96710500Y-107389394D01*
X96710500Y-104838500D01*
X101737894Y-104838500D01*
X102653197Y-105753803D01*
X108511312Y-106108500D02*
X110680500Y-106108500D01*
X107485007Y-106311700D02*
X110680500Y-106311700D01*
X107545961Y-106514900D02*
X110680500Y-106514900D01*
X107778189Y-106718100D02*
X110680500Y-106718100D01*
X108010418Y-106921300D02*
X110680500Y-106921300D01*
X108242647Y-107124500D02*
X110680500Y-107124500D01*
X108474875Y-107327700D02*
X110680500Y-107327700D01*
X108707104Y-107530900D02*
X110680500Y-107530900D01*
X110680500Y-107632500D02*
X108823218Y-107632500D01*
X107485007Y-106461566D01*
X107485007Y-106205605D01*
X108277002Y-106205605D01*
X108398181Y-106182804D01*
X108509476Y-106111187D01*
X108511312Y-106108500D01*
X110680500Y-106108500D01*
X110680500Y-107632500D01*
X116967000Y-103187500D02*
X120967500Y-103187500D01*
X116967000Y-103390700D02*
X120967500Y-103390700D01*
X116967000Y-103593900D02*
X120967500Y-103593900D01*
X116967000Y-103797100D02*
X120967500Y-103797100D01*
X116967000Y-104000300D02*
X120967500Y-104000300D01*
X116967000Y-104203500D02*
X120967500Y-104203500D01*
X116967000Y-104406700D02*
X120967500Y-104406700D01*
X116967000Y-104609900D02*
X120967500Y-104609900D01*
X116967000Y-104813100D02*
X120967500Y-104813100D01*
X116967000Y-105016300D02*
X120967500Y-105016300D01*
X116967000Y-105219500D02*
X120967500Y-105219500D01*
X116967000Y-105422700D02*
X120967500Y-105422700D01*
X111914690Y-105625900D02*
X120967500Y-105625900D01*
X112009936Y-105829100D02*
X120967500Y-105829100D01*
X111967289Y-106032300D02*
X120967500Y-106032300D01*
X111907815Y-106235500D02*
X120967500Y-106235500D01*
X111848342Y-106438700D02*
X120967500Y-106438700D01*
X111788869Y-106641900D02*
X120967500Y-106641900D01*
X111729396Y-106845100D02*
X120967500Y-106845100D01*
X111669923Y-107048300D02*
X120967500Y-107048300D01*
X111610450Y-107251500D02*
X120967500Y-107251500D01*
X111550977Y-107454700D02*
X120967500Y-107454700D01*
X111491503Y-107657900D02*
X120967500Y-107657900D01*
X111432030Y-107861100D02*
X120967500Y-107861100D01*
X111372557Y-108064300D02*
X120967500Y-108064300D01*
X111313084Y-108267500D02*
X120967500Y-108267500D01*
X111253611Y-108470700D02*
X120967500Y-108470700D01*
X111252000Y-108673900D02*
X120967500Y-108673900D01*
X111252000Y-108877100D02*
X120967500Y-108877100D01*
X111252000Y-109080300D02*
X120967500Y-109080300D01*
X111252000Y-109283500D02*
X120967500Y-109283500D01*
X111252000Y-109486700D02*
X120967500Y-109486700D01*
X111252000Y-109689900D02*
X120967500Y-109689900D01*
X111252000Y-109893100D02*
X120967500Y-109893100D01*
X111272802Y-110096300D02*
X120967500Y-110096300D01*
X111306669Y-110299500D02*
X120967500Y-110299500D01*
X111340536Y-110502700D02*
X120967500Y-110502700D01*
X116908659Y-110705900D02*
X120967500Y-110705900D01*
X117071219Y-110909100D02*
X120967500Y-110909100D01*
X120967500Y-110934500D02*
X117091539Y-110934500D01*
X116875670Y-110664664D01*
X116836991Y-110632331D01*
X116776500Y-110617000D01*
X111359585Y-110617000D01*
X111252000Y-109971489D01*
X111252000Y-108476205D01*
X112008887Y-105890174D01*
X112013163Y-105839943D01*
X112000592Y-105797704D01*
X111901990Y-105600500D01*
X116840000Y-105600500D01*
X116889410Y-105590494D01*
X116931035Y-105562053D01*
X116958315Y-105519659D01*
X116967000Y-105473500D01*
X116967000Y-103187500D01*
X120967500Y-103187500D01*
X120967500Y-110934500D01*
X115041381Y-110499725D02*
X115041381Y-110499725D01*
X114838181Y-110702925D02*
X116173494Y-110702925D01*
X114681000Y-110906125D02*
X117305607Y-110906125D01*
X114681000Y-111109325D02*
X117348000Y-111109325D01*
X114681000Y-111312525D02*
X117348000Y-111312525D01*
X114681000Y-111515725D02*
X117348000Y-111515725D01*
X114681000Y-111718925D02*
X117348000Y-111718925D01*
X114681000Y-111922125D02*
X117348000Y-111922125D01*
X114681000Y-112125325D02*
X117348000Y-112125325D01*
X114681000Y-112328525D02*
X117348000Y-112328525D01*
X114681000Y-112531725D02*
X117348000Y-112531725D01*
X114681000Y-112734925D02*
X117348000Y-112734925D01*
X114681000Y-112938125D02*
X117348000Y-112938125D01*
X114681000Y-113141325D02*
X117348000Y-113141325D01*
X114681000Y-113344525D02*
X117348000Y-113344525D01*
X114681000Y-113547725D02*
X117348000Y-113547725D01*
X114681000Y-113750925D02*
X117348000Y-113750925D01*
X114681000Y-113954125D02*
X117348000Y-113954125D01*
X114681000Y-114157325D02*
X117348000Y-114157325D01*
X114681000Y-114360525D02*
X117348000Y-114360525D01*
X114681000Y-114563725D02*
X117348000Y-114563725D01*
X114681000Y-114766925D02*
X117348000Y-114766925D01*
X114681000Y-114970125D02*
X117348000Y-114970125D01*
X114681000Y-115173325D02*
X117348000Y-115173325D01*
X114681000Y-115376525D02*
X117348000Y-115376525D01*
X114681000Y-115579725D02*
X117348000Y-115579725D01*
X114681000Y-115782925D02*
X117348000Y-115782925D01*
X114681000Y-115986125D02*
X117348000Y-115986125D01*
X114681000Y-116189325D02*
X117348000Y-116189325D01*
X114681000Y-116392525D02*
X117348000Y-116392525D01*
X114681000Y-116595725D02*
X117348000Y-116595725D01*
X114681000Y-116798925D02*
X117348000Y-116798925D01*
X114681000Y-117002125D02*
X117348000Y-117002125D01*
X114681000Y-117205325D02*
X117348000Y-117205325D01*
X114681000Y-117408525D02*
X117219886Y-117408525D01*
X114681000Y-117611725D02*
X117064099Y-117611725D01*
X114681000Y-117814925D02*
X116908312Y-117814925D01*
X114681000Y-118018125D02*
X116752526Y-118018125D01*
X114681000Y-118221325D02*
X116596739Y-118221325D01*
X114681000Y-118424525D02*
X116440952Y-118424525D01*
X114681000Y-118627725D02*
X116285166Y-118627725D01*
X111379000Y-118830925D02*
X116129379Y-118830925D01*
X111379000Y-119034125D02*
X115973592Y-119034125D01*
X111379000Y-119237325D02*
X115887500Y-119237325D01*
X111379000Y-119440525D02*
X115887500Y-119440525D01*
X111379000Y-119643725D02*
X115887500Y-119643725D01*
X111379000Y-119846925D02*
X115887500Y-119846925D01*
X111379000Y-120050125D02*
X115887500Y-120050125D01*
X111379000Y-120253325D02*
X115887500Y-120253325D01*
X111379000Y-120456525D02*
X115887500Y-120456525D01*
X111379000Y-120659725D02*
X115887500Y-120659725D01*
X111379000Y-120862925D02*
X115887500Y-120862925D01*
X111379000Y-121066125D02*
X115887500Y-121066125D01*
X111379000Y-121269325D02*
X115887500Y-121269325D01*
X111379000Y-121472525D02*
X115887500Y-121472525D01*
X111379000Y-121675725D02*
X115887500Y-121675725D01*
X111379000Y-121878925D02*
X115887500Y-121878925D01*
X111379000Y-122082125D02*
X115887500Y-122082125D01*
X111379000Y-122285325D02*
X115887500Y-122285325D01*
X111379000Y-122488525D02*
X115887500Y-122488525D01*
X111379000Y-122691725D02*
X115887500Y-122691725D01*
X111379000Y-122894925D02*
X115887500Y-122894925D01*
X111379000Y-123098125D02*
X115887500Y-123098125D01*
X111379000Y-123301325D02*
X115887500Y-123301325D01*
X111379000Y-123504525D02*
X115887500Y-123504525D01*
X111379000Y-123707725D02*
X115887500Y-123707725D01*
X111379000Y-123910925D02*
X115887500Y-123910925D01*
X111379000Y-124114125D02*
X115887500Y-124114125D01*
X111379000Y-124317325D02*
X115887500Y-124317325D01*
X111379000Y-124520525D02*
X115887500Y-124520525D01*
X111379000Y-124723725D02*
X115887500Y-124723725D01*
X111379000Y-124926925D02*
X115887500Y-124926925D01*
X111379000Y-125130125D02*
X115887500Y-125130125D01*
X111379000Y-125333325D02*
X115887500Y-125333325D01*
X111379000Y-125536525D02*
X115887500Y-125536525D01*
X111379000Y-125739725D02*
X115887500Y-125739725D01*
X111379000Y-125942925D02*
X115887500Y-125942925D01*
X111379000Y-126146125D02*
X115887500Y-126146125D01*
X111379000Y-126349325D02*
X115887500Y-126349325D01*
X111379000Y-126552525D02*
X115887500Y-126552525D01*
X111379000Y-126755725D02*
X115887500Y-126755725D01*
X111379000Y-126958925D02*
X115887500Y-126958925D01*
X111379000Y-127162125D02*
X115887500Y-127162125D01*
X111379000Y-127365325D02*
X115887500Y-127365325D01*
X111379000Y-127568525D02*
X115887500Y-127568525D01*
X111379000Y-127771725D02*
X115887500Y-127771725D01*
X111379000Y-127974925D02*
X115887500Y-127974925D01*
X111379000Y-128178125D02*
X115887500Y-128178125D01*
X111379000Y-128381325D02*
X115887500Y-128381325D01*
X111379000Y-128584525D02*
X115887500Y-128584525D01*
X111379000Y-128787725D02*
X115887500Y-128787725D01*
X111379000Y-128990925D02*
X115887500Y-128990925D01*
X111379000Y-129194125D02*
X115887500Y-129194125D01*
X117348000Y-110913734D02*
X117348000Y-117241419D01*
X115913712Y-119112229D01*
X115891590Y-119157529D01*
X115887500Y-119189500D01*
X115887500Y-129392000D01*
X111379000Y-129392000D01*
X111379000Y-118808500D01*
X114554000Y-118808500D01*
X114603410Y-118798494D01*
X114645035Y-118770053D01*
X114672315Y-118727659D01*
X114681000Y-118681500D01*
X114681000Y-110860106D01*
X115041381Y-110499725D01*
X117348000Y-110913734D01*
G36*
X109728000Y-103040257D02*
X109030129Y-103339344D01*
X108845757Y-103376018D01*
X108754464Y-103437018D01*
X108695502Y-103476416D01*
X108601333Y-103514083D01*
X108559173Y-103541724D01*
X108531089Y-103583590D01*
X108521500Y-103632000D01*
X108521500Y-103640852D01*
X108482153Y-103680199D01*
X108392380Y-103680199D01*
X108277002Y-103656834D01*
X107427002Y-103656834D01*
X107268765Y-103686608D01*
X107123435Y-103780126D01*
X107025938Y-103922818D01*
X107008811Y-104007394D01*
X106997500Y-104044750D01*
X106997500Y-104063247D01*
X106991637Y-104092199D01*
X106991637Y-104372199D01*
X106997500Y-104403359D01*
X106997500Y-104563249D01*
X106991637Y-104592201D01*
X106991637Y-104872201D01*
X106997500Y-104903360D01*
X106997500Y-105063248D01*
X106991637Y-105092200D01*
X106991637Y-105372200D01*
X106997500Y-105403360D01*
X106997500Y-106063249D01*
X106991637Y-106092201D01*
X106991637Y-106372201D01*
X106997500Y-106403361D01*
X106997500Y-106870500D01*
X107007506Y-106919910D01*
X107039071Y-106964472D01*
X108436071Y-108234472D01*
X108479362Y-108260306D01*
X108521500Y-108267500D01*
X109241167Y-108267500D01*
X109918500Y-108775500D01*
X109918500Y-114681000D01*
X109928506Y-114730410D01*
X109946330Y-114760336D01*
X110426500Y-115360549D01*
X110426500Y-129286000D01*
X106045000Y-129286000D01*
X106045000Y-114808000D01*
X106034994Y-114758590D01*
X106006553Y-114716965D01*
X105964159Y-114689685D01*
X105918000Y-114681000D01*
X99728064Y-114681000D01*
X92708431Y-110760124D01*
X92646500Y-110744000D01*
X88582500Y-110744000D01*
X88582500Y-107823000D01*
X92705122Y-107823000D01*
X95955417Y-108073023D01*
X99859197Y-111976803D01*
X99901211Y-112004666D01*
X99949000Y-112014000D01*
X103251000Y-112014000D01*
X103300410Y-112003994D01*
X103342035Y-111975553D01*
X103369315Y-111933159D01*
X103378000Y-111887000D01*
X103378000Y-107886500D01*
X104203500Y-107886500D01*
X104239993Y-107881144D01*
X105509993Y-107500144D01*
X105554444Y-107476362D01*
X105586141Y-107437160D01*
X105600500Y-107378500D01*
X105600500Y-106703622D01*
X105630567Y-106684274D01*
X105728064Y-106541582D01*
X105762365Y-106372201D01*
X105762365Y-106092201D01*
X105740907Y-105978160D01*
X105762365Y-105872199D01*
X105762365Y-105592199D01*
X105740907Y-105478160D01*
X105762365Y-105372200D01*
X105762365Y-105092200D01*
X105732591Y-104933963D01*
X105639073Y-104788633D01*
X105600500Y-104762277D01*
X105600500Y-104703620D01*
X105630567Y-104684272D01*
X105728064Y-104541580D01*
X105762365Y-104372199D01*
X105762365Y-104092199D01*
X105732591Y-103933962D01*
X105639073Y-103788632D01*
X105496381Y-103691135D01*
X105473500Y-103686501D01*
X105473500Y-103314500D01*
X105918000Y-103314500D01*
X105967410Y-103304494D01*
X106009035Y-103276053D01*
X106036315Y-103233659D01*
X106045000Y-103187500D01*
X106045000Y-101536500D01*
X109728000Y-101536500D01*
X109728000Y-103040257D01*
X109728000Y-103040257D01*
G37*
X109728000Y-103040257D02*
X109030129Y-103339344D01*
X108845757Y-103376018D01*
X108754464Y-103437018D01*
X108695502Y-103476416D01*
X108601333Y-103514083D01*
X108559173Y-103541724D01*
X108531089Y-103583590D01*
X108521500Y-103632000D01*
X108521500Y-103640852D01*
X108482153Y-103680199D01*
X108392380Y-103680199D01*
X108277002Y-103656834D01*
X107427002Y-103656834D01*
X107268765Y-103686608D01*
X107123435Y-103780126D01*
X107025938Y-103922818D01*
X107008811Y-104007394D01*
X106997500Y-104044750D01*
X106997500Y-104063247D01*
X106991637Y-104092199D01*
X106991637Y-104372199D01*
X106997500Y-104403359D01*
X106997500Y-104563249D01*
X106991637Y-104592201D01*
X106991637Y-104872201D01*
X106997500Y-104903360D01*
X106997500Y-105063248D01*
X106991637Y-105092200D01*
X106991637Y-105372200D01*
X106997500Y-105403360D01*
X106997500Y-106063249D01*
X106991637Y-106092201D01*
X106991637Y-106372201D01*
X106997500Y-106403361D01*
X106997500Y-106870500D01*
X107007506Y-106919910D01*
X107039071Y-106964472D01*
X108436071Y-108234472D01*
X108479362Y-108260306D01*
X108521500Y-108267500D01*
X109241167Y-108267500D01*
X109918500Y-108775500D01*
X109918500Y-114681000D01*
X109928506Y-114730410D01*
X109946330Y-114760336D01*
X110426500Y-115360549D01*
X110426500Y-129286000D01*
X106045000Y-129286000D01*
X106045000Y-114808000D01*
X106034994Y-114758590D01*
X106006553Y-114716965D01*
X105964159Y-114689685D01*
X105918000Y-114681000D01*
X99728064Y-114681000D01*
X92708431Y-110760124D01*
X92646500Y-110744000D01*
X88582500Y-110744000D01*
X88582500Y-107823000D01*
X92705122Y-107823000D01*
X95955417Y-108073023D01*
X99859197Y-111976803D01*
X99901211Y-112004666D01*
X99949000Y-112014000D01*
X103251000Y-112014000D01*
X103300410Y-112003994D01*
X103342035Y-111975553D01*
X103369315Y-111933159D01*
X103378000Y-111887000D01*
X103378000Y-107886500D01*
X104203500Y-107886500D01*
X104239993Y-107881144D01*
X105509993Y-107500144D01*
X105554444Y-107476362D01*
X105586141Y-107437160D01*
X105600500Y-107378500D01*
X105600500Y-106703622D01*
X105630567Y-106684274D01*
X105728064Y-106541582D01*
X105762365Y-106372201D01*
X105762365Y-106092201D01*
X105740907Y-105978160D01*
X105762365Y-105872199D01*
X105762365Y-105592199D01*
X105740907Y-105478160D01*
X105762365Y-105372200D01*
X105762365Y-105092200D01*
X105732591Y-104933963D01*
X105639073Y-104788633D01*
X105600500Y-104762277D01*
X105600500Y-104703620D01*
X105630567Y-104684272D01*
X105728064Y-104541580D01*
X105762365Y-104372199D01*
X105762365Y-104092199D01*
X105732591Y-103933962D01*
X105639073Y-103788632D01*
X105496381Y-103691135D01*
X105473500Y-103686501D01*
X105473500Y-103314500D01*
X105918000Y-103314500D01*
X105967410Y-103304494D01*
X106009035Y-103276053D01*
X106036315Y-103233659D01*
X106045000Y-103187500D01*
X106045000Y-101536500D01*
X109728000Y-101536500D01*
X109728000Y-103040257D01*
G36*
X105821928Y-85485067D02*
X105964620Y-85582564D01*
X106134001Y-85616865D01*
X106434001Y-85616865D01*
X106592238Y-85587091D01*
X106607176Y-85577479D01*
X106614619Y-85582564D01*
X106784000Y-85616865D01*
X107084000Y-85616865D01*
X107242237Y-85587091D01*
X107257175Y-85577479D01*
X107264618Y-85582564D01*
X107433999Y-85616865D01*
X107733999Y-85616865D01*
X107892236Y-85587091D01*
X108037566Y-85493573D01*
X108104918Y-85395000D01*
X108775500Y-85395000D01*
X108775500Y-85915500D01*
X108785506Y-85964910D01*
X108815459Y-86007981D01*
X109894959Y-87023981D01*
X109937797Y-87050559D01*
X109982000Y-87058500D01*
X113728500Y-87058500D01*
X113777910Y-87048494D01*
X113818303Y-87021303D01*
X114543106Y-86296500D01*
X125539500Y-86296500D01*
X125539500Y-89852500D01*
X109347000Y-89852500D01*
X109347000Y-88201500D01*
X109333592Y-88144704D01*
X109206592Y-87890704D01*
X109175546Y-87850985D01*
X109131493Y-87826474D01*
X109093000Y-87820500D01*
X107558106Y-87820500D01*
X107486000Y-87748394D01*
X107486000Y-87446259D01*
X107519365Y-87281500D01*
X107519365Y-86581500D01*
X107489591Y-86423263D01*
X107396073Y-86277933D01*
X107281598Y-86199716D01*
X107238092Y-86112704D01*
X107207046Y-86072985D01*
X107162993Y-86048474D01*
X107124500Y-86042500D01*
X105918000Y-86042500D01*
X105868590Y-86052506D01*
X105826965Y-86080947D01*
X105799685Y-86123341D01*
X105791000Y-86169500D01*
X105791000Y-86327141D01*
X105732937Y-86412119D01*
X105698636Y-86581500D01*
X105698636Y-87281500D01*
X105728410Y-87439737D01*
X105732001Y-87445318D01*
X105732001Y-88032851D01*
X105478587Y-88328500D01*
X102171500Y-88328500D01*
X102122090Y-88338506D01*
X102080465Y-88366947D01*
X102046773Y-88431580D01*
X101177542Y-92964000D01*
X94973896Y-92964000D01*
X89662000Y-89089440D01*
X89662000Y-86677500D01*
X92807020Y-86677500D01*
X93796204Y-87172092D01*
X93853000Y-87185500D01*
X98742500Y-87185500D01*
X98791910Y-87175494D01*
X98832303Y-87148303D01*
X99557106Y-86423500D01*
X104775000Y-86423500D01*
X104824410Y-86413494D01*
X104866035Y-86385053D01*
X104892048Y-86345783D01*
X105292378Y-85395000D01*
X105763971Y-85395000D01*
X105821928Y-85485067D01*
X105821928Y-85485067D01*
G37*
X105821928Y-85485067D02*
X105964620Y-85582564D01*
X106134001Y-85616865D01*
X106434001Y-85616865D01*
X106592238Y-85587091D01*
X106607176Y-85577479D01*
X106614619Y-85582564D01*
X106784000Y-85616865D01*
X107084000Y-85616865D01*
X107242237Y-85587091D01*
X107257175Y-85577479D01*
X107264618Y-85582564D01*
X107433999Y-85616865D01*
X107733999Y-85616865D01*
X107892236Y-85587091D01*
X108037566Y-85493573D01*
X108104918Y-85395000D01*
X108775500Y-85395000D01*
X108775500Y-85915500D01*
X108785506Y-85964910D01*
X108815459Y-86007981D01*
X109894959Y-87023981D01*
X109937797Y-87050559D01*
X109982000Y-87058500D01*
X113728500Y-87058500D01*
X113777910Y-87048494D01*
X113818303Y-87021303D01*
X114543106Y-86296500D01*
X125539500Y-86296500D01*
X125539500Y-89852500D01*
X109347000Y-89852500D01*
X109347000Y-88201500D01*
X109333592Y-88144704D01*
X109206592Y-87890704D01*
X109175546Y-87850985D01*
X109131493Y-87826474D01*
X109093000Y-87820500D01*
X107558106Y-87820500D01*
X107486000Y-87748394D01*
X107486000Y-87446259D01*
X107519365Y-87281500D01*
X107519365Y-86581500D01*
X107489591Y-86423263D01*
X107396073Y-86277933D01*
X107281598Y-86199716D01*
X107238092Y-86112704D01*
X107207046Y-86072985D01*
X107162993Y-86048474D01*
X107124500Y-86042500D01*
X105918000Y-86042500D01*
X105868590Y-86052506D01*
X105826965Y-86080947D01*
X105799685Y-86123341D01*
X105791000Y-86169500D01*
X105791000Y-86327141D01*
X105732937Y-86412119D01*
X105698636Y-86581500D01*
X105698636Y-87281500D01*
X105728410Y-87439737D01*
X105732001Y-87445318D01*
X105732001Y-88032851D01*
X105478587Y-88328500D01*
X102171500Y-88328500D01*
X102122090Y-88338506D01*
X102080465Y-88366947D01*
X102046773Y-88431580D01*
X101177542Y-92964000D01*
X94973896Y-92964000D01*
X89662000Y-89089440D01*
X89662000Y-86677500D01*
X92807020Y-86677500D01*
X93796204Y-87172092D01*
X93853000Y-87185500D01*
X98742500Y-87185500D01*
X98791910Y-87175494D01*
X98832303Y-87148303D01*
X99557106Y-86423500D01*
X104775000Y-86423500D01*
X104824410Y-86413494D01*
X104866035Y-86385053D01*
X104892048Y-86345783D01*
X105292378Y-85395000D01*
X105763971Y-85395000D01*
X105821928Y-85485067D01*
M02*
