G04 #@! TF.FileFunction,Copper,L2,Bot,Signal*
%FSLAX46Y46*%
G04 Gerber Fmt 4.6, Leading zero omitted, Abs format (unit mm)*
G04 Created by KiCad (PCBNEW 4.0.4-stable) date 07/27/17 22:09:25*
%MOMM*%
%LPD*%
G01*
G04 APERTURE LIST*
%ADD10C,0.100000*%
%ADD11C,2.000000*%
%ADD12R,1.700000X1.700000*%
%ADD13O,1.700000X1.700000*%
%ADD14C,0.508000*%
%ADD15C,0.600000*%
%ADD16C,0.400000*%
%ADD17C,0.250000*%
%ADD18C,0.254000*%
G04 APERTURE END LIST*
D10*
D11*
X95313500Y-90297000D03*
X91440000Y-80581500D03*
X122301000Y-80454500D03*
X123634500Y-109918500D03*
D12*
X91376500Y-87376000D03*
D13*
X91376500Y-84836000D03*
D12*
X123253500Y-84772500D03*
D13*
X123253500Y-87312500D03*
D12*
X119253000Y-109918500D03*
D13*
X119253000Y-112458500D03*
D12*
X90360500Y-108585000D03*
D13*
X90360500Y-106045000D03*
D11*
X90297000Y-102298500D03*
D14*
X106351601Y-104470200D03*
X106351601Y-106045000D03*
D15*
X108514000Y-101092000D03*
X107378500Y-101155500D03*
D16*
X107188000Y-85661500D03*
X106489500Y-85661500D03*
D15*
X105029000Y-87731000D03*
X106934000Y-91967000D03*
X109283500Y-104584500D03*
X115274500Y-104838500D03*
X112395000Y-85598000D03*
X107696000Y-92710000D03*
D17*
X109410500Y-104711500D02*
X109283500Y-104584500D01*
X114723236Y-104711500D02*
X109410500Y-104711500D01*
X115274500Y-104838500D02*
X114850236Y-104838500D01*
X114850236Y-104838500D02*
X114723236Y-104711500D01*
X111760000Y-85598000D02*
X112395000Y-85598000D01*
X111125000Y-86233000D02*
X111760000Y-85598000D01*
X111125000Y-90233500D02*
X111125000Y-86233000D01*
X110363000Y-90995500D02*
X111125000Y-90233500D01*
X108775500Y-90995500D02*
X110363000Y-90995500D01*
X107696000Y-92075000D02*
X108775500Y-90995500D01*
X107696000Y-92710000D02*
X107696000Y-92075000D01*
D18*
X83069500Y-72973000D02*
X126607500Y-72973000D01*
X83069500Y-73176200D02*
X126607500Y-73176200D01*
X83069500Y-73379400D02*
X126607500Y-73379400D01*
X83069500Y-73582600D02*
X126607500Y-73582600D01*
X83069500Y-73785800D02*
X126607500Y-73785800D01*
X83069500Y-73989000D02*
X126607500Y-73989000D01*
X83069500Y-74192200D02*
X126607500Y-74192200D01*
X83069500Y-74395400D02*
X126607500Y-74395400D01*
X83069500Y-74598600D02*
X126607500Y-74598600D01*
X83069500Y-74801800D02*
X126607500Y-74801800D01*
X83069500Y-75005000D02*
X126607500Y-75005000D01*
X83069500Y-75208200D02*
X126607500Y-75208200D01*
X83069500Y-75411400D02*
X126607500Y-75411400D01*
X83069500Y-75614600D02*
X126607500Y-75614600D01*
X83069500Y-75817800D02*
X126607500Y-75817800D01*
X83069500Y-76021000D02*
X126607500Y-76021000D01*
X83069500Y-76224200D02*
X126607500Y-76224200D01*
X83069500Y-76427400D02*
X126607500Y-76427400D01*
X83069500Y-76630600D02*
X126607500Y-76630600D01*
X83069500Y-76833800D02*
X126607500Y-76833800D01*
X83069500Y-77037000D02*
X126607500Y-77037000D01*
X83069500Y-77240200D02*
X126607500Y-77240200D01*
X83069500Y-77443400D02*
X126607500Y-77443400D01*
X83069500Y-77646600D02*
X126607500Y-77646600D01*
X83069500Y-77849800D02*
X126607500Y-77849800D01*
X83069500Y-78053000D02*
X126607500Y-78053000D01*
X83069500Y-78256200D02*
X126607500Y-78256200D01*
X83069500Y-78459400D02*
X126607500Y-78459400D01*
X83069500Y-78662600D02*
X126607500Y-78662600D01*
X83069500Y-78865800D02*
X121864464Y-78865800D01*
X122738468Y-78865800D02*
X126607500Y-78865800D01*
X83069500Y-79069000D02*
X90819046Y-79069000D01*
X92060978Y-79069000D02*
X121374661Y-79069000D01*
X123227829Y-79069000D02*
X126607500Y-79069000D01*
X83069500Y-79272200D02*
X90437328Y-79272200D01*
X92443209Y-79272200D02*
X121171106Y-79272200D01*
X123430987Y-79272200D02*
X126607500Y-79272200D01*
X83069500Y-79475400D02*
X90233772Y-79475400D01*
X92646054Y-79475400D02*
X120967550Y-79475400D01*
X123633832Y-79475400D02*
X126607500Y-79475400D01*
X83069500Y-79678600D02*
X90044565Y-79678600D01*
X92836003Y-79678600D02*
X120852830Y-79678600D01*
X123749478Y-79678600D02*
X126607500Y-79678600D01*
X83069500Y-79881800D02*
X89960189Y-79881800D01*
X92919963Y-79881800D02*
X120768454Y-79881800D01*
X123833439Y-79881800D02*
X126607500Y-79881800D01*
X83069500Y-80085000D02*
X89875813Y-80085000D01*
X93003924Y-80085000D02*
X120684078Y-80085000D01*
X123917400Y-80085000D02*
X126607500Y-80085000D01*
X83069500Y-80288200D02*
X89805255Y-80288200D01*
X93075257Y-80288200D02*
X120666144Y-80288200D01*
X123936146Y-80288200D02*
X126607500Y-80288200D01*
X83069500Y-80491400D02*
X89805078Y-80491400D01*
X93075079Y-80491400D02*
X120665967Y-80491400D01*
X123935969Y-80491400D02*
X126607500Y-80491400D01*
X83069500Y-80694600D02*
X89804900Y-80694600D01*
X93074902Y-80694600D02*
X120665790Y-80694600D01*
X123935791Y-80694600D02*
X126607500Y-80694600D01*
X83069500Y-80897800D02*
X89804723Y-80897800D01*
X93074725Y-80897800D02*
X120715094Y-80897800D01*
X123887277Y-80897800D02*
X126607500Y-80897800D01*
X83069500Y-81101000D02*
X89885579Y-81101000D01*
X92994637Y-81101000D02*
X120799055Y-81101000D01*
X123802902Y-81101000D02*
X126607500Y-81101000D01*
X83069500Y-81304200D02*
X89969540Y-81304200D01*
X92910261Y-81304200D02*
X120883016Y-81304200D01*
X123718526Y-81304200D02*
X126607500Y-81304200D01*
X83069500Y-81507400D02*
X90054061Y-81507400D01*
X92825885Y-81507400D02*
X121041839Y-81507400D01*
X123560521Y-81507400D02*
X126607500Y-81507400D01*
X83069500Y-81710600D02*
X90256906Y-81710600D01*
X92623188Y-81710600D02*
X121244684Y-81710600D01*
X123356965Y-81710600D02*
X126607500Y-81710600D01*
X83069500Y-81913800D02*
X90459751Y-81913800D01*
X92419632Y-81913800D02*
X121551902Y-81913800D01*
X123050707Y-81913800D02*
X126607500Y-81913800D01*
X83069500Y-82117000D02*
X90874412Y-82117000D01*
X92005290Y-82117000D02*
X126607500Y-82117000D01*
X83069500Y-82320200D02*
X126607500Y-82320200D01*
X83069500Y-82523400D02*
X126607500Y-82523400D01*
X83069500Y-82726600D02*
X126607500Y-82726600D01*
X83069500Y-82929800D02*
X126607500Y-82929800D01*
X83069500Y-83133000D02*
X126607500Y-83133000D01*
X83069500Y-83336200D02*
X122141979Y-83336200D01*
X124370218Y-83336200D02*
X126607500Y-83336200D01*
X83069500Y-83539400D02*
X90666337Y-83539400D01*
X92086664Y-83539400D02*
X121896721Y-83539400D01*
X124611567Y-83539400D02*
X126607500Y-83539400D01*
X83069500Y-83742600D02*
X90362226Y-83742600D01*
X92390775Y-83742600D02*
X121792491Y-83742600D01*
X124717090Y-83742600D02*
X126607500Y-83742600D01*
X83069500Y-83945800D02*
X90190543Y-83945800D01*
X92562459Y-83945800D02*
X121756060Y-83945800D01*
X124750940Y-83945800D02*
X126607500Y-83945800D01*
X83069500Y-84149000D02*
X90054769Y-84149000D01*
X92698232Y-84149000D02*
X121756060Y-84149000D01*
X124750940Y-84149000D02*
X126607500Y-84149000D01*
X83069500Y-84352200D02*
X89958641Y-84352200D01*
X92794360Y-84352200D02*
X121756060Y-84352200D01*
X124750940Y-84352200D02*
X126607500Y-84352200D01*
X83069500Y-84555400D02*
X89918222Y-84555400D01*
X92834779Y-84555400D02*
X121756060Y-84555400D01*
X124750940Y-84555400D02*
X126607500Y-84555400D01*
X83069500Y-84758600D02*
X89877803Y-84758600D01*
X92875198Y-84758600D02*
X111978071Y-84758600D01*
X112811639Y-84758600D02*
X121756060Y-84758600D01*
X124750940Y-84758600D02*
X126607500Y-84758600D01*
X83069500Y-84961800D02*
X89887430Y-84961800D01*
X92865569Y-84961800D02*
X111370463Y-84961800D01*
X113081048Y-84961800D02*
X121756060Y-84961800D01*
X124750940Y-84961800D02*
X126607500Y-84961800D01*
X83069500Y-85165000D02*
X89927849Y-85165000D01*
X92825150Y-85165000D02*
X111118198Y-85165000D01*
X113227760Y-85165000D02*
X121756060Y-85165000D01*
X124750940Y-85165000D02*
X126607500Y-85165000D01*
X83069500Y-85368200D02*
X89968268Y-85368200D01*
X92784731Y-85368200D02*
X110914998Y-85368200D01*
X113311721Y-85368200D02*
X121756060Y-85368200D01*
X124750940Y-85368200D02*
X126607500Y-85368200D01*
X83069500Y-85571400D02*
X90087108Y-85571400D01*
X92665891Y-85571400D02*
X110711798Y-85571400D01*
X113330023Y-85571400D02*
X121756060Y-85571400D01*
X124750940Y-85571400D02*
X126607500Y-85571400D01*
X83069500Y-85774600D02*
X90222881Y-85774600D01*
X92530118Y-85774600D02*
X110534813Y-85774600D01*
X113329846Y-85774600D02*
X121784679Y-85774600D01*
X124720138Y-85774600D02*
X126607500Y-85774600D01*
X83069500Y-85977800D02*
X90190638Y-85977800D01*
X92562363Y-85977800D02*
X110415763Y-85977800D01*
X113249696Y-85977800D02*
X121877544Y-85977800D01*
X124629273Y-85977800D02*
X126607500Y-85977800D01*
X83069500Y-86181000D02*
X89982085Y-86181000D01*
X92770916Y-86181000D02*
X110375344Y-86181000D01*
X113134426Y-86181000D02*
X122096096Y-86181000D01*
X124408223Y-86181000D02*
X126607500Y-86181000D01*
X83069500Y-86384200D02*
X89897917Y-86384200D01*
X92855084Y-86384200D02*
X110365000Y-86384200D01*
X112930872Y-86384200D02*
X122128923Y-86384200D01*
X124378078Y-86384200D02*
X126607500Y-86384200D01*
X83069500Y-86587400D02*
X89891500Y-86587400D01*
X92861500Y-86587400D02*
X110365000Y-86587400D01*
X111885000Y-86587400D02*
X121964533Y-86587400D01*
X124542468Y-86587400D02*
X126607500Y-86587400D01*
X83069500Y-86790600D02*
X89891500Y-86790600D01*
X92861500Y-86790600D02*
X110365000Y-86790600D01*
X111885000Y-86790600D02*
X121880370Y-86790600D01*
X124626631Y-86790600D02*
X126607500Y-86790600D01*
X83069500Y-86993800D02*
X89891500Y-86993800D01*
X92861500Y-86993800D02*
X110365000Y-86993800D01*
X111885000Y-86993800D02*
X121832178Y-86993800D01*
X124674821Y-86993800D02*
X126607500Y-86993800D01*
X83069500Y-87197000D02*
X89998250Y-87197000D01*
X92754750Y-87197000D02*
X110365000Y-87197000D01*
X111885000Y-87197000D02*
X126607500Y-87197000D01*
X83069500Y-87400200D02*
X110365000Y-87400200D01*
X111885000Y-87400200D02*
X126607500Y-87400200D01*
X83069500Y-87603400D02*
X89949850Y-87603400D01*
X91249500Y-87603400D02*
X91503500Y-87603400D01*
X92803150Y-87603400D02*
X110365000Y-87603400D01*
X111885000Y-87603400D02*
X121846850Y-87603400D01*
X123126500Y-87603400D02*
X123380500Y-87603400D01*
X124660151Y-87603400D02*
X126607500Y-87603400D01*
X83069500Y-87806600D02*
X89891500Y-87806600D01*
X91249500Y-87806600D02*
X91503500Y-87806600D01*
X92861500Y-87806600D02*
X110365000Y-87806600D01*
X111885000Y-87806600D02*
X121868854Y-87806600D01*
X123126500Y-87806600D02*
X123380500Y-87806600D01*
X124638145Y-87806600D02*
X126607500Y-87806600D01*
X83069500Y-88009800D02*
X89891500Y-88009800D01*
X91249500Y-88009800D02*
X91503500Y-88009800D01*
X92861500Y-88009800D02*
X110365000Y-88009800D01*
X111885000Y-88009800D02*
X121953017Y-88009800D01*
X123126500Y-88009800D02*
X123380500Y-88009800D01*
X124553982Y-88009800D02*
X126607500Y-88009800D01*
X83069500Y-88213000D02*
X89891500Y-88213000D01*
X91249500Y-88213000D02*
X91503500Y-88213000D01*
X92861500Y-88213000D02*
X110365000Y-88213000D01*
X111885000Y-88213000D02*
X122103587Y-88213000D01*
X123126500Y-88213000D02*
X123380500Y-88213000D01*
X124403412Y-88213000D02*
X126607500Y-88213000D01*
X83069500Y-88416200D02*
X89917964Y-88416200D01*
X91249500Y-88416200D02*
X91503500Y-88416200D01*
X92835035Y-88416200D02*
X110365000Y-88416200D01*
X111885000Y-88416200D02*
X122288770Y-88416200D01*
X123126500Y-88416200D02*
X123380500Y-88416200D01*
X124218229Y-88416200D02*
X126607500Y-88416200D01*
X83069500Y-88619400D02*
X90021874Y-88619400D01*
X91249500Y-88619400D02*
X91503500Y-88619400D01*
X92731125Y-88619400D02*
X110365000Y-88619400D01*
X111885000Y-88619400D02*
X122610026Y-88619400D01*
X123126500Y-88619400D02*
X123380500Y-88619400D01*
X123896973Y-88619400D02*
X126607500Y-88619400D01*
X83069500Y-88822600D02*
X90307485Y-88822600D01*
X91129150Y-88822600D02*
X91623850Y-88822600D01*
X92445514Y-88822600D02*
X94572050Y-88822600D01*
X96039686Y-88822600D02*
X110365000Y-88822600D01*
X111885000Y-88822600D02*
X126607500Y-88822600D01*
X83069500Y-89025800D02*
X94384448Y-89025800D01*
X96242553Y-89025800D02*
X110365000Y-89025800D01*
X111885000Y-89025800D02*
X126607500Y-89025800D01*
X83069500Y-89229000D02*
X94425105Y-89229000D01*
X96201895Y-89229000D02*
X110365000Y-89229000D01*
X111885000Y-89229000D02*
X126607500Y-89229000D01*
X83069500Y-89432200D02*
X93890597Y-89432200D01*
X94269095Y-89432200D02*
X94628305Y-89432200D01*
X95998695Y-89432200D02*
X96357905Y-89432200D01*
X96736808Y-89432200D02*
X110365000Y-89432200D01*
X111885000Y-89432200D02*
X126607500Y-89432200D01*
X83069500Y-89635400D02*
X93815106Y-89635400D01*
X94472295Y-89635400D02*
X94831505Y-89635400D01*
X95795495Y-89635400D02*
X96154705Y-89635400D01*
X96820976Y-89635400D02*
X110365000Y-89635400D01*
X111885000Y-89635400D02*
X126607500Y-89635400D01*
X83069500Y-89838600D02*
X93739614Y-89838600D01*
X94675495Y-89838600D02*
X95034705Y-89838600D01*
X95592295Y-89838600D02*
X95951505Y-89838600D01*
X96905144Y-89838600D02*
X110365000Y-89838600D01*
X111885000Y-89838600D02*
X126607500Y-89838600D01*
X83069500Y-90041800D02*
X93667937Y-90041800D01*
X94878695Y-90041800D02*
X95237905Y-90041800D01*
X95389095Y-90041800D02*
X95748305Y-90041800D01*
X96940177Y-90041800D02*
X110241898Y-90041800D01*
X111885000Y-90041800D02*
X126607500Y-90041800D01*
X83069500Y-90245000D02*
X93675456Y-90245000D01*
X95081895Y-90245000D02*
X95545105Y-90245000D01*
X96947696Y-90245000D02*
X108727741Y-90245000D01*
X111882712Y-90245000D02*
X126607500Y-90245000D01*
X83069500Y-90448200D02*
X93682975Y-90448200D01*
X94982695Y-90448200D02*
X95644305Y-90448200D01*
X96955215Y-90448200D02*
X108252914Y-90448200D01*
X111842293Y-90448200D02*
X126607500Y-90448200D01*
X83069500Y-90651400D02*
X93690494Y-90651400D01*
X94779495Y-90651400D02*
X95138705Y-90651400D01*
X95488295Y-90651400D02*
X95847505Y-90651400D01*
X96926023Y-90651400D02*
X108044798Y-90651400D01*
X111742248Y-90651400D02*
X126607500Y-90651400D01*
X83069500Y-90854600D02*
X93762946Y-90854600D01*
X94576295Y-90854600D02*
X94935505Y-90854600D01*
X95691495Y-90854600D02*
X96050705Y-90854600D01*
X96850531Y-90854600D02*
X107841598Y-90854600D01*
X111578702Y-90854600D02*
X126607500Y-90854600D01*
X83069500Y-91057800D02*
X93847114Y-91057800D01*
X94373095Y-91057800D02*
X94732305Y-91057800D01*
X95894695Y-91057800D02*
X96253905Y-91057800D01*
X96775040Y-91057800D02*
X107638398Y-91057800D01*
X111375502Y-91057800D02*
X126607500Y-91057800D01*
X83069500Y-91261000D02*
X94136823Y-91261000D01*
X94169895Y-91261000D02*
X94529105Y-91261000D01*
X96097895Y-91261000D02*
X96457105Y-91261000D01*
X96490176Y-91261000D02*
X107435198Y-91261000D01*
X111172302Y-91261000D02*
X126607500Y-91261000D01*
X83069500Y-91464200D02*
X94345996Y-91464200D01*
X96281003Y-91464200D02*
X107231998Y-91464200D01*
X110969102Y-91464200D02*
X126607500Y-91464200D01*
X83069500Y-91667400D02*
X94421124Y-91667400D01*
X96205875Y-91667400D02*
X107071869Y-91667400D01*
X110699108Y-91667400D02*
X126607500Y-91667400D01*
X83069500Y-91870600D02*
X94854330Y-91870600D01*
X95815460Y-91870600D02*
X106976659Y-91870600D01*
X108975202Y-91870600D02*
X126607500Y-91870600D01*
X83069500Y-92073800D02*
X106936239Y-92073800D01*
X108772002Y-92073800D02*
X126607500Y-92073800D01*
X83069500Y-92277000D02*
X106863395Y-92277000D01*
X108568802Y-92277000D02*
X126607500Y-92277000D01*
X83069500Y-92480200D02*
X106779018Y-92480200D01*
X108612720Y-92480200D02*
X126607500Y-92480200D01*
X83069500Y-92683400D02*
X106761023Y-92683400D01*
X108631023Y-92683400D02*
X126607500Y-92683400D01*
X83069500Y-92886600D02*
X106760846Y-92886600D01*
X108630846Y-92886600D02*
X126607500Y-92886600D01*
X83069500Y-93089800D02*
X106841258Y-93089800D01*
X108550696Y-93089800D02*
X126607500Y-93089800D01*
X83069500Y-93293000D02*
X106956845Y-93293000D01*
X108435426Y-93293000D02*
X126607500Y-93293000D01*
X83069500Y-93496200D02*
X107159691Y-93496200D01*
X108231872Y-93496200D02*
X126607500Y-93496200D01*
X83069500Y-93699400D02*
X126607500Y-93699400D01*
X83069500Y-93902600D02*
X126607500Y-93902600D01*
X83069500Y-94105800D02*
X126607500Y-94105800D01*
X83069500Y-94309000D02*
X126607500Y-94309000D01*
X83069500Y-94512200D02*
X126607500Y-94512200D01*
X83069500Y-94715400D02*
X126607500Y-94715400D01*
X83069500Y-94918600D02*
X126607500Y-94918600D01*
X83069500Y-95121800D02*
X126607500Y-95121800D01*
X83069500Y-95325000D02*
X126607500Y-95325000D01*
X83069500Y-95528200D02*
X126607500Y-95528200D01*
X83069500Y-95731400D02*
X126607500Y-95731400D01*
X83069500Y-95934600D02*
X126607500Y-95934600D01*
X83069500Y-96137800D02*
X126607500Y-96137800D01*
X83069500Y-96341000D02*
X126607500Y-96341000D01*
X83069500Y-96544200D02*
X126607500Y-96544200D01*
X83069500Y-96747400D02*
X126607500Y-96747400D01*
X83069500Y-96950600D02*
X126607500Y-96950600D01*
X83069500Y-97153800D02*
X126607500Y-97153800D01*
X83069500Y-97357000D02*
X126607500Y-97357000D01*
X83069500Y-97560200D02*
X126607500Y-97560200D01*
X83069500Y-97763400D02*
X126607500Y-97763400D01*
X83069500Y-97966600D02*
X126607500Y-97966600D01*
X83069500Y-98169800D02*
X126607500Y-98169800D01*
X83069500Y-98373000D02*
X126607500Y-98373000D01*
X83069500Y-98576200D02*
X126607500Y-98576200D01*
X83069500Y-98779400D02*
X126607500Y-98779400D01*
X83069500Y-98982600D02*
X126607500Y-98982600D01*
X83069500Y-99185800D02*
X126607500Y-99185800D01*
X83069500Y-99389000D02*
X126607500Y-99389000D01*
X83069500Y-99592200D02*
X126607500Y-99592200D01*
X83069500Y-99795400D02*
X126607500Y-99795400D01*
X83069500Y-99998600D02*
X126607500Y-99998600D01*
X83069500Y-100201800D02*
X126607500Y-100201800D01*
X83069500Y-100405000D02*
X126607500Y-100405000D01*
X83069500Y-100608200D02*
X126607500Y-100608200D01*
X83069500Y-100811400D02*
X89614574Y-100811400D01*
X90979148Y-100811400D02*
X126607500Y-100811400D01*
X83069500Y-101014600D02*
X89268883Y-101014600D01*
X91325564Y-101014600D02*
X126607500Y-101014600D01*
X83069500Y-101217800D02*
X89065328Y-101217800D01*
X91528410Y-101217800D02*
X126607500Y-101217800D01*
X83069500Y-101421000D02*
X88891018Y-101421000D01*
X91703498Y-101421000D02*
X126607500Y-101421000D01*
X83069500Y-101624200D02*
X88806642Y-101624200D01*
X91787458Y-101624200D02*
X126607500Y-101624200D01*
X83069500Y-101827400D02*
X88722266Y-101827400D01*
X91871419Y-101827400D02*
X126607500Y-101827400D01*
X83069500Y-102030600D02*
X88662233Y-102030600D01*
X91932235Y-102030600D02*
X126607500Y-102030600D01*
X83069500Y-102233800D02*
X88662056Y-102233800D01*
X91932057Y-102233800D02*
X126607500Y-102233800D01*
X83069500Y-102437000D02*
X88661878Y-102437000D01*
X91931880Y-102437000D02*
X126607500Y-102437000D01*
X83069500Y-102640200D02*
X88669114Y-102640200D01*
X91925465Y-102640200D02*
X126607500Y-102640200D01*
X83069500Y-102843400D02*
X88753074Y-102843400D01*
X91841090Y-102843400D02*
X126607500Y-102843400D01*
X83069500Y-103046600D02*
X88837035Y-103046600D01*
X91756714Y-103046600D02*
X126607500Y-103046600D01*
X83069500Y-103249800D02*
X88936416Y-103249800D01*
X91658299Y-103249800D02*
X126607500Y-103249800D01*
X83069500Y-103453000D02*
X89139262Y-103453000D01*
X91454743Y-103453000D02*
X126607500Y-103453000D01*
X83069500Y-103656200D02*
X89342107Y-103656200D01*
X91251188Y-103656200D02*
X105958880Y-103656200D01*
X106732108Y-103656200D02*
X109081726Y-103656200D01*
X109486045Y-103656200D02*
X126607500Y-103656200D01*
X83069500Y-103859400D02*
X89792582Y-103859400D01*
X90800817Y-103859400D02*
X105920406Y-103859400D01*
X106782796Y-103859400D02*
X108686422Y-103859400D01*
X109880802Y-103859400D02*
X126607500Y-103859400D01*
X83069500Y-104062600D02*
X105545728Y-104062600D01*
X105764396Y-104062600D02*
X106123606Y-104062600D01*
X106579596Y-104062600D02*
X106938806Y-104062600D01*
X107159438Y-104062600D02*
X108487809Y-104062600D01*
X115821091Y-104062600D02*
X126607500Y-104062600D01*
X83069500Y-104265800D02*
X105484781Y-104265800D01*
X105967596Y-104265800D02*
X106326806Y-104265800D01*
X106376396Y-104265800D02*
X106735606Y-104265800D01*
X107224405Y-104265800D02*
X108403433Y-104265800D01*
X116023937Y-104265800D02*
X126607500Y-104265800D01*
X83069500Y-104469000D02*
X105457897Y-104469000D01*
X106170796Y-104469000D02*
X106532406Y-104469000D01*
X107245061Y-104469000D02*
X108348600Y-104469000D01*
X116133498Y-104469000D02*
X126607500Y-104469000D01*
X83069500Y-104672200D02*
X89767340Y-104672200D01*
X90953661Y-104672200D02*
X105478553Y-104672200D01*
X105969996Y-104672200D02*
X106329206Y-104672200D01*
X106373996Y-104672200D02*
X106733206Y-104672200D01*
X107219140Y-104672200D02*
X108348423Y-104672200D01*
X116209645Y-104672200D02*
X126607500Y-104672200D01*
X83069500Y-104875400D02*
X89460267Y-104875400D01*
X91260734Y-104875400D02*
X105542769Y-104875400D01*
X105766796Y-104875400D02*
X106126006Y-104875400D01*
X106577196Y-104875400D02*
X106936406Y-104875400D01*
X107158194Y-104875400D02*
X108392025Y-104875400D01*
X116209468Y-104875400D02*
X126607500Y-104875400D01*
X83069500Y-105078600D02*
X89225458Y-105078600D01*
X91495544Y-105078600D02*
X105922806Y-105078600D01*
X106780396Y-105078600D02*
X108475986Y-105078600D01*
X116187205Y-105078600D02*
X126607500Y-105078600D01*
X83069500Y-105281800D02*
X89089684Y-105281800D01*
X91631317Y-105281800D02*
X105925557Y-105281800D01*
X106777646Y-105281800D02*
X108658446Y-105281800D01*
X116102828Y-105281800D02*
X126607500Y-105281800D01*
X83069500Y-105485000D02*
X88957799Y-105485000D01*
X91763202Y-105485000D02*
X105971206Y-105485000D01*
X106731996Y-105485000D02*
X109014006Y-105485000D01*
X109552555Y-105485000D02*
X114476113Y-105485000D01*
X115950316Y-105485000D02*
X126607500Y-105485000D01*
X83069500Y-105688200D02*
X88917379Y-105688200D01*
X91803622Y-105688200D02*
X105530491Y-105688200D01*
X105815196Y-105688200D02*
X106174406Y-105688200D01*
X106528796Y-105688200D02*
X106888006Y-105688200D01*
X107180481Y-105688200D02*
X114882666Y-105688200D01*
X115666501Y-105688200D02*
X126607500Y-105688200D01*
X83069500Y-105891400D02*
X88876960Y-105891400D01*
X91844041Y-105891400D02*
X105469545Y-105891400D01*
X106018396Y-105891400D02*
X106684806Y-105891400D01*
X107229569Y-105891400D02*
X126607500Y-105891400D01*
X83069500Y-106094600D02*
X88856273Y-106094600D01*
X91864726Y-106094600D02*
X105463061Y-106094600D01*
X106122396Y-106094600D02*
X106580806Y-106094600D01*
X107250225Y-106094600D02*
X126607500Y-106094600D01*
X83069500Y-106297800D02*
X88896692Y-106297800D01*
X91824307Y-106297800D02*
X105483717Y-106297800D01*
X105919196Y-106297800D02*
X106278406Y-106297800D01*
X106424796Y-106297800D02*
X106784006Y-106297800D01*
X107203904Y-106297800D02*
X126607500Y-106297800D01*
X83069500Y-106501000D02*
X88937111Y-106501000D01*
X91783888Y-106501000D02*
X106075206Y-106501000D01*
X106627996Y-106501000D02*
X126607500Y-106501000D01*
X83069500Y-106704200D02*
X89020193Y-106704200D01*
X91700806Y-106704200D02*
X105922041Y-106704200D01*
X106781160Y-106704200D02*
X126607500Y-106704200D01*
X83069500Y-106907400D02*
X89155966Y-106907400D01*
X91565032Y-106907400D02*
X106132464Y-106907400D01*
X106627474Y-106907400D02*
X126607500Y-106907400D01*
X83069500Y-107110600D02*
X89304619Y-107110600D01*
X91416380Y-107110600D02*
X126607500Y-107110600D01*
X83069500Y-107313800D02*
X89033675Y-107313800D01*
X91687326Y-107313800D02*
X126607500Y-107313800D01*
X83069500Y-107517000D02*
X88913480Y-107517000D01*
X91807521Y-107517000D02*
X126607500Y-107517000D01*
X83069500Y-107720200D02*
X88875500Y-107720200D01*
X91845500Y-107720200D02*
X126607500Y-107720200D01*
X83069500Y-107923400D02*
X88875500Y-107923400D01*
X91845500Y-107923400D02*
X126607500Y-107923400D01*
X83069500Y-108126600D02*
X88875500Y-108126600D01*
X91845500Y-108126600D02*
X126607500Y-108126600D01*
X83069500Y-108329800D02*
X88906050Y-108329800D01*
X91814950Y-108329800D02*
X123197964Y-108329800D01*
X124071968Y-108329800D02*
X126607500Y-108329800D01*
X83069500Y-108533000D02*
X118062534Y-108533000D01*
X120444066Y-108533000D02*
X122708161Y-108533000D01*
X124561329Y-108533000D02*
X126607500Y-108533000D01*
X83069500Y-108736200D02*
X89010050Y-108736200D01*
X90233500Y-108736200D02*
X90487500Y-108736200D01*
X91710950Y-108736200D02*
X117861511Y-108736200D01*
X120643756Y-108736200D02*
X122504606Y-108736200D01*
X124764487Y-108736200D02*
X126607500Y-108736200D01*
X83069500Y-108939400D02*
X88875500Y-108939400D01*
X90233500Y-108939400D02*
X90487500Y-108939400D01*
X91845500Y-108939400D02*
X117781704Y-108939400D01*
X120726149Y-108939400D02*
X122301050Y-108939400D01*
X124967332Y-108939400D02*
X126607500Y-108939400D01*
X83069500Y-109142600D02*
X88875500Y-109142600D01*
X90233500Y-109142600D02*
X90487500Y-109142600D01*
X91845500Y-109142600D02*
X117755560Y-109142600D01*
X120750440Y-109142600D02*
X122186330Y-109142600D01*
X125082978Y-109142600D02*
X126607500Y-109142600D01*
X83069500Y-109345800D02*
X88875500Y-109345800D01*
X90233500Y-109345800D02*
X90487500Y-109345800D01*
X91845500Y-109345800D02*
X117755560Y-109345800D01*
X120750440Y-109345800D02*
X122101954Y-109345800D01*
X125166939Y-109345800D02*
X126607500Y-109345800D01*
X83069500Y-109549000D02*
X88875500Y-109549000D01*
X90233500Y-109549000D02*
X90487500Y-109549000D01*
X91845500Y-109549000D02*
X117755560Y-109549000D01*
X120750440Y-109549000D02*
X122017578Y-109549000D01*
X125250900Y-109549000D02*
X126607500Y-109549000D01*
X83069500Y-109752200D02*
X88954569Y-109752200D01*
X90233500Y-109752200D02*
X90487500Y-109752200D01*
X91766430Y-109752200D02*
X117755560Y-109752200D01*
X120750440Y-109752200D02*
X121999644Y-109752200D01*
X125269646Y-109752200D02*
X126607500Y-109752200D01*
X83069500Y-109955400D02*
X89132874Y-109955400D01*
X90189350Y-109955400D02*
X90531650Y-109955400D01*
X91588125Y-109955400D02*
X117755560Y-109955400D01*
X120750440Y-109955400D02*
X121999467Y-109955400D01*
X125269469Y-109955400D02*
X126607500Y-109955400D01*
X83069500Y-110158600D02*
X117755560Y-110158600D01*
X120750440Y-110158600D02*
X121999290Y-110158600D01*
X125269291Y-110158600D02*
X126607500Y-110158600D01*
X83069500Y-110361800D02*
X117755560Y-110361800D01*
X120750440Y-110361800D02*
X122048594Y-110361800D01*
X125220777Y-110361800D02*
X126607500Y-110361800D01*
X83069500Y-110565000D02*
X117755560Y-110565000D01*
X120750440Y-110565000D02*
X122132555Y-110565000D01*
X125136402Y-110565000D02*
X126607500Y-110565000D01*
X83069500Y-110768200D02*
X117755560Y-110768200D01*
X120750440Y-110768200D02*
X122216516Y-110768200D01*
X125052026Y-110768200D02*
X126607500Y-110768200D01*
X83069500Y-110971400D02*
X117793738Y-110971400D01*
X120709351Y-110971400D02*
X122375339Y-110971400D01*
X124894021Y-110971400D02*
X126607500Y-110971400D01*
X83069500Y-111174600D02*
X117909733Y-111174600D01*
X120594063Y-111174600D02*
X122578184Y-111174600D01*
X124690465Y-111174600D02*
X126607500Y-111174600D01*
X83069500Y-111377800D02*
X118214658Y-111377800D01*
X120305697Y-111377800D02*
X122885402Y-111377800D01*
X124384207Y-111377800D02*
X126607500Y-111377800D01*
X83069500Y-111581000D02*
X118082127Y-111581000D01*
X120423874Y-111581000D02*
X126607500Y-111581000D01*
X83069500Y-111784200D02*
X117942992Y-111784200D01*
X120563009Y-111784200D02*
X126607500Y-111784200D01*
X83069500Y-111987400D02*
X117858829Y-111987400D01*
X120647172Y-111987400D02*
X126607500Y-111987400D01*
X83069500Y-112190600D02*
X117858487Y-112190600D01*
X120647512Y-112190600D02*
X126607500Y-112190600D01*
X83069500Y-112393800D02*
X126607500Y-112393800D01*
X83069500Y-112597000D02*
X117926777Y-112597000D01*
X119126000Y-112597000D02*
X119380000Y-112597000D01*
X120579224Y-112597000D02*
X126607500Y-112597000D01*
X83069500Y-112800200D02*
X117819541Y-112800200D01*
X119126000Y-112800200D02*
X119380000Y-112800200D01*
X120686460Y-112800200D02*
X126607500Y-112800200D01*
X83069500Y-113003400D02*
X117889395Y-113003400D01*
X119126000Y-113003400D02*
X119380000Y-113003400D01*
X120616604Y-113003400D02*
X126607500Y-113003400D01*
X83069500Y-113206600D02*
X117973558Y-113206600D01*
X119126000Y-113206600D02*
X119380000Y-113206600D01*
X120532441Y-113206600D02*
X126607500Y-113206600D01*
X83069500Y-113409800D02*
X118149383Y-113409800D01*
X119126000Y-113409800D02*
X119380000Y-113409800D01*
X120356616Y-113409800D02*
X126607500Y-113409800D01*
X83069500Y-113613000D02*
X118334566Y-113613000D01*
X119126000Y-113613000D02*
X119380000Y-113613000D01*
X120171433Y-113613000D02*
X126607500Y-113613000D01*
X83069500Y-113816200D02*
X118717698Y-113816200D01*
X119055735Y-113816200D02*
X119450264Y-113816200D01*
X119788301Y-113816200D02*
X126607500Y-113816200D01*
X83069500Y-114019400D02*
X126607500Y-114019400D01*
X83069500Y-114222600D02*
X126607500Y-114222600D01*
X83069500Y-114425800D02*
X126607500Y-114425800D01*
X83069500Y-114629000D02*
X126607500Y-114629000D01*
X83069500Y-114832200D02*
X126607500Y-114832200D01*
X83069500Y-115035400D02*
X126607500Y-115035400D01*
X83069500Y-115238600D02*
X126607500Y-115238600D01*
X83069500Y-115441800D02*
X126607500Y-115441800D01*
X83069500Y-115645000D02*
X126607500Y-115645000D01*
X83069500Y-115848200D02*
X126607500Y-115848200D01*
X83069500Y-116051400D02*
X126607500Y-116051400D01*
X83069500Y-116254600D02*
X126607500Y-116254600D01*
X83069500Y-116457800D02*
X126607500Y-116457800D01*
X83069500Y-116661000D02*
X126607500Y-116661000D01*
X83069500Y-116864200D02*
X126607500Y-116864200D01*
X83069500Y-117067400D02*
X126607500Y-117067400D01*
X83069500Y-117270600D02*
X126607500Y-117270600D01*
X83069500Y-117473800D02*
X126607500Y-117473800D01*
X83069500Y-117677000D02*
X126607500Y-117677000D01*
X83069500Y-117880200D02*
X126607500Y-117880200D01*
X83069500Y-118083400D02*
X126607500Y-118083400D01*
X83069500Y-118286600D02*
X126607500Y-118286600D01*
X83069500Y-118489800D02*
X126607500Y-118489800D01*
X83069500Y-118693000D02*
X126607500Y-118693000D01*
X83069500Y-118896200D02*
X126607500Y-118896200D01*
X83069500Y-119099400D02*
X126607500Y-119099400D01*
X83069500Y-119302600D02*
X126607500Y-119302600D01*
X83069500Y-119505800D02*
X126607500Y-119505800D01*
X83069500Y-119709000D02*
X126607500Y-119709000D01*
X83069500Y-119912200D02*
X126607500Y-119912200D01*
X83069500Y-120115400D02*
X126607500Y-120115400D01*
X83069500Y-120318600D02*
X126607500Y-120318600D01*
X83069500Y-120521800D02*
X126607500Y-120521800D01*
X83069500Y-120725000D02*
X126607500Y-120725000D01*
X83069500Y-120928200D02*
X126607500Y-120928200D01*
X83069500Y-121131400D02*
X126607500Y-121131400D01*
X83069500Y-121334600D02*
X126607500Y-121334600D01*
X83069500Y-121537800D02*
X126607500Y-121537800D01*
X83069500Y-121741000D02*
X126607500Y-121741000D01*
X83069500Y-121944200D02*
X126607500Y-121944200D01*
X83069500Y-122147400D02*
X126607500Y-122147400D01*
X83069500Y-122350600D02*
X126607500Y-122350600D01*
X83069500Y-122553800D02*
X126607500Y-122553800D01*
X83069500Y-122757000D02*
X126607500Y-122757000D01*
X83069500Y-122960200D02*
X126607500Y-122960200D01*
X83069500Y-123163400D02*
X126607500Y-123163400D01*
X83069500Y-123366600D02*
X126607500Y-123366600D01*
X83069500Y-123569800D02*
X126607500Y-123569800D01*
X83069500Y-123773000D02*
X126607500Y-123773000D01*
X83069500Y-123976200D02*
X126607500Y-123976200D01*
X83069500Y-124179400D02*
X126607500Y-124179400D01*
X83069500Y-124382600D02*
X126607500Y-124382600D01*
X83069500Y-124585800D02*
X126607500Y-124585800D01*
X83069500Y-124789000D02*
X126607500Y-124789000D01*
X83069500Y-124992200D02*
X126607500Y-124992200D01*
X83069500Y-125195400D02*
X126607500Y-125195400D01*
X83069500Y-125398600D02*
X126607500Y-125398600D01*
X83069500Y-125601800D02*
X126607500Y-125601800D01*
X83069500Y-125805000D02*
X126607500Y-125805000D01*
X83069500Y-126008200D02*
X126607500Y-126008200D01*
X83069500Y-126211400D02*
X126607500Y-126211400D01*
X83069500Y-126414600D02*
X126607500Y-126414600D01*
X83069500Y-126617800D02*
X126607500Y-126617800D01*
X83069500Y-126821000D02*
X126607500Y-126821000D01*
X83069500Y-127024200D02*
X126607500Y-127024200D01*
X83069500Y-127227400D02*
X126607500Y-127227400D01*
X83069500Y-127430600D02*
X126607500Y-127430600D01*
X83069500Y-127633800D02*
X126607500Y-127633800D01*
X83069500Y-127837000D02*
X126607500Y-127837000D01*
X83069500Y-128040200D02*
X126607500Y-128040200D01*
X83069500Y-128243400D02*
X126607500Y-128243400D01*
X83069500Y-128446600D02*
X126607500Y-128446600D01*
X83069500Y-128649800D02*
X126607500Y-128649800D01*
X83069500Y-128853000D02*
X126607500Y-128853000D01*
X83069500Y-129056200D02*
X126607500Y-129056200D01*
X126607500Y-129084000D02*
X83069500Y-129084000D01*
X83069500Y-112815390D01*
X117811524Y-112815390D01*
X117981355Y-113225424D01*
X118371642Y-113653683D01*
X118896108Y-113899986D01*
X119126000Y-113779319D01*
X119126000Y-112585500D01*
X119380000Y-112585500D01*
X119380000Y-113779319D01*
X119609892Y-113899986D01*
X120134358Y-113653683D01*
X120524645Y-113225424D01*
X120694476Y-112815390D01*
X120573155Y-112585500D01*
X119380000Y-112585500D01*
X119126000Y-112585500D01*
X117932845Y-112585500D01*
X117811524Y-112815390D01*
X83069500Y-112815390D01*
X83069500Y-108870750D01*
X88875500Y-108870750D01*
X88875500Y-109561310D01*
X88972173Y-109794699D01*
X89150802Y-109973327D01*
X89384191Y-110070000D01*
X90074750Y-110070000D01*
X90233500Y-109911250D01*
X90233500Y-108712000D01*
X90487500Y-108712000D01*
X90487500Y-109911250D01*
X90646250Y-110070000D01*
X91336809Y-110070000D01*
X91570198Y-109973327D01*
X91748827Y-109794699D01*
X91845500Y-109561310D01*
X91845500Y-109068500D01*
X117755560Y-109068500D01*
X117755560Y-110768500D01*
X117799838Y-111003817D01*
X117938910Y-111219941D01*
X118151110Y-111364931D01*
X118259107Y-111386801D01*
X117981355Y-111691576D01*
X117811524Y-112101610D01*
X117932845Y-112331500D01*
X119126000Y-112331500D01*
X119126000Y-112311500D01*
X119380000Y-112311500D01*
X119380000Y-112331500D01*
X120573155Y-112331500D01*
X120694476Y-112101610D01*
X120524645Y-111691576D01*
X120248499Y-111388563D01*
X120338317Y-111371662D01*
X120554441Y-111232590D01*
X120699431Y-111020390D01*
X120750440Y-110768500D01*
X120750440Y-110242295D01*
X121999216Y-110242295D01*
X122247606Y-110843443D01*
X122707137Y-111303778D01*
X123307852Y-111553216D01*
X123958295Y-111553784D01*
X124559443Y-111305394D01*
X125019778Y-110845863D01*
X125269216Y-110245148D01*
X125269784Y-109594705D01*
X125021394Y-108993557D01*
X124561863Y-108533222D01*
X123961148Y-108283784D01*
X123310705Y-108283216D01*
X122709557Y-108531606D01*
X122249222Y-108991137D01*
X121999784Y-109591852D01*
X121999216Y-110242295D01*
X120750440Y-110242295D01*
X120750440Y-109068500D01*
X120706162Y-108833183D01*
X120567090Y-108617059D01*
X120354890Y-108472069D01*
X120103000Y-108421060D01*
X118403000Y-108421060D01*
X118167683Y-108465338D01*
X117951559Y-108604410D01*
X117806569Y-108816610D01*
X117755560Y-109068500D01*
X91845500Y-109068500D01*
X91845500Y-108870750D01*
X91686750Y-108712000D01*
X90487500Y-108712000D01*
X90233500Y-108712000D01*
X89034250Y-108712000D01*
X88875500Y-108870750D01*
X83069500Y-108870750D01*
X83069500Y-106045000D01*
X88846407Y-106045000D01*
X88959446Y-106613285D01*
X89281353Y-107095054D01*
X89325277Y-107124403D01*
X89150802Y-107196673D01*
X88972173Y-107375301D01*
X88875500Y-107608690D01*
X88875500Y-108299250D01*
X89034250Y-108458000D01*
X90233500Y-108458000D01*
X90233500Y-108438000D01*
X90487500Y-108438000D01*
X90487500Y-108458000D01*
X91686750Y-108458000D01*
X91845500Y-108299250D01*
X91845500Y-107608690D01*
X91748827Y-107375301D01*
X91570198Y-107196673D01*
X91395723Y-107124403D01*
X91439647Y-107095054D01*
X91733146Y-106655800D01*
X105920406Y-106655800D01*
X105926824Y-106845722D01*
X106265581Y-106947326D01*
X106617434Y-106911559D01*
X106776378Y-106845722D01*
X106782796Y-106655800D01*
X106351601Y-106224605D01*
X105920406Y-106655800D01*
X91733146Y-106655800D01*
X91761554Y-106613285D01*
X91874593Y-106045000D01*
X91857483Y-105958980D01*
X105449275Y-105958980D01*
X105485042Y-106310833D01*
X105550879Y-106469777D01*
X105740801Y-106476195D01*
X106171996Y-106045000D01*
X106531206Y-106045000D01*
X106962401Y-106476195D01*
X107152323Y-106469777D01*
X107253927Y-106131020D01*
X107218160Y-105779167D01*
X107152323Y-105620223D01*
X106962401Y-105613805D01*
X106531206Y-106045000D01*
X106171996Y-106045000D01*
X105740801Y-105613805D01*
X105550879Y-105620223D01*
X105449275Y-105958980D01*
X91857483Y-105958980D01*
X91761554Y-105476715D01*
X91497147Y-105081000D01*
X105920406Y-105081000D01*
X105926374Y-105257600D01*
X105920406Y-105434200D01*
X106351601Y-105865395D01*
X106782796Y-105434200D01*
X106776828Y-105257600D01*
X106782796Y-105081000D01*
X106351601Y-104649805D01*
X105920406Y-105081000D01*
X91497147Y-105081000D01*
X91439647Y-104994946D01*
X90957878Y-104673039D01*
X90389593Y-104560000D01*
X90331407Y-104560000D01*
X89763122Y-104673039D01*
X89281353Y-104994946D01*
X88959446Y-105476715D01*
X88846407Y-106045000D01*
X83069500Y-106045000D01*
X83069500Y-104384180D01*
X105449275Y-104384180D01*
X105485042Y-104736033D01*
X105550879Y-104894977D01*
X105740801Y-104901395D01*
X106171996Y-104470200D01*
X106531206Y-104470200D01*
X106962401Y-104901395D01*
X107152323Y-104894977D01*
X107189907Y-104769667D01*
X108348338Y-104769667D01*
X108490383Y-105113443D01*
X108753173Y-105376692D01*
X109096701Y-105519338D01*
X109468667Y-105519662D01*
X109585228Y-105471500D01*
X114455909Y-105471500D01*
X114559397Y-105540648D01*
X114677796Y-105564199D01*
X114744173Y-105630692D01*
X115087701Y-105773338D01*
X115459667Y-105773662D01*
X115803443Y-105631617D01*
X116066692Y-105368827D01*
X116209338Y-105025299D01*
X116209662Y-104653333D01*
X116067617Y-104309557D01*
X115804827Y-104046308D01*
X115461299Y-103903662D01*
X115089333Y-103903338D01*
X114891681Y-103985006D01*
X114723236Y-103951500D01*
X109972741Y-103951500D01*
X109813827Y-103792308D01*
X109470299Y-103649662D01*
X109098333Y-103649338D01*
X108754557Y-103791383D01*
X108491308Y-104054173D01*
X108348662Y-104397701D01*
X108348338Y-104769667D01*
X107189907Y-104769667D01*
X107253927Y-104556220D01*
X107218160Y-104204367D01*
X107152323Y-104045423D01*
X106962401Y-104039005D01*
X106531206Y-104470200D01*
X106171996Y-104470200D01*
X105740801Y-104039005D01*
X105550879Y-104045423D01*
X105449275Y-104384180D01*
X83069500Y-104384180D01*
X83069500Y-102622295D01*
X88661716Y-102622295D01*
X88910106Y-103223443D01*
X89369637Y-103683778D01*
X89970352Y-103933216D01*
X90620795Y-103933784D01*
X90800817Y-103859400D01*
X105920406Y-103859400D01*
X106351601Y-104290595D01*
X106782796Y-103859400D01*
X106776378Y-103669478D01*
X106437621Y-103567874D01*
X106085768Y-103603641D01*
X105926824Y-103669478D01*
X105920406Y-103859400D01*
X90800817Y-103859400D01*
X91221943Y-103685394D01*
X91682278Y-103225863D01*
X91931716Y-102625148D01*
X91932284Y-101974705D01*
X91683894Y-101373557D01*
X91224363Y-100913222D01*
X90623648Y-100663784D01*
X89973205Y-100663216D01*
X89372057Y-100911606D01*
X88911722Y-101371137D01*
X88662284Y-101971852D01*
X88661716Y-102622295D01*
X83069500Y-102622295D01*
X83069500Y-92895167D01*
X106760838Y-92895167D01*
X106902883Y-93238943D01*
X107165673Y-93502192D01*
X107509201Y-93644838D01*
X107881167Y-93645162D01*
X108224943Y-93503117D01*
X108488192Y-93240327D01*
X108630838Y-92896799D01*
X108631162Y-92524833D01*
X108540467Y-92305335D01*
X109090302Y-91755500D01*
X110363000Y-91755500D01*
X110653839Y-91697648D01*
X110900401Y-91532901D01*
X111662401Y-90770901D01*
X111827148Y-90524339D01*
X111885000Y-90233500D01*
X111885000Y-87669390D01*
X121812024Y-87669390D01*
X121981855Y-88079424D01*
X122372142Y-88507683D01*
X122896608Y-88753986D01*
X123126500Y-88633319D01*
X123126500Y-87439500D01*
X123380500Y-87439500D01*
X123380500Y-88633319D01*
X123610392Y-88753986D01*
X124134858Y-88507683D01*
X124525145Y-88079424D01*
X124694976Y-87669390D01*
X124573655Y-87439500D01*
X123380500Y-87439500D01*
X123126500Y-87439500D01*
X121933345Y-87439500D01*
X121812024Y-87669390D01*
X111885000Y-87669390D01*
X111885000Y-86547802D01*
X111990402Y-86442400D01*
X112208201Y-86532838D01*
X112580167Y-86533162D01*
X112923943Y-86391117D01*
X113187192Y-86128327D01*
X113329838Y-85784799D01*
X113330162Y-85412833D01*
X113188117Y-85069057D01*
X112925327Y-84805808D01*
X112581799Y-84663162D01*
X112209833Y-84662838D01*
X111866057Y-84804883D01*
X111832882Y-84838000D01*
X111760000Y-84838000D01*
X111469161Y-84895852D01*
X111222599Y-85060599D01*
X110587599Y-85695599D01*
X110422852Y-85942161D01*
X110365000Y-86233000D01*
X110365000Y-89918698D01*
X110048198Y-90235500D01*
X108775500Y-90235500D01*
X108484661Y-90293352D01*
X108238099Y-90458099D01*
X107158599Y-91537599D01*
X106993852Y-91784161D01*
X106936000Y-92075000D01*
X106936000Y-92147537D01*
X106903808Y-92179673D01*
X106761162Y-92523201D01*
X106760838Y-92895167D01*
X83069500Y-92895167D01*
X83069500Y-91449532D01*
X94340573Y-91449532D01*
X94439236Y-91716387D01*
X95048961Y-91942908D01*
X95698960Y-91918856D01*
X96187764Y-91716387D01*
X96286427Y-91449532D01*
X95313500Y-90476605D01*
X94340573Y-91449532D01*
X83069500Y-91449532D01*
X83069500Y-90032461D01*
X93667592Y-90032461D01*
X93691644Y-90682460D01*
X93894113Y-91171264D01*
X94160968Y-91269927D01*
X95133895Y-90297000D01*
X95493105Y-90297000D01*
X96466032Y-91269927D01*
X96732887Y-91171264D01*
X96959408Y-90561539D01*
X96935356Y-89911540D01*
X96732887Y-89422736D01*
X96466032Y-89324073D01*
X95493105Y-90297000D01*
X95133895Y-90297000D01*
X94160968Y-89324073D01*
X93894113Y-89422736D01*
X93667592Y-90032461D01*
X83069500Y-90032461D01*
X83069500Y-89144468D01*
X94340573Y-89144468D01*
X95313500Y-90117395D01*
X96286427Y-89144468D01*
X96187764Y-88877613D01*
X95578039Y-88651092D01*
X94928040Y-88675144D01*
X94439236Y-88877613D01*
X94340573Y-89144468D01*
X83069500Y-89144468D01*
X83069500Y-87661750D01*
X89891500Y-87661750D01*
X89891500Y-88352310D01*
X89988173Y-88585699D01*
X90166802Y-88764327D01*
X90400191Y-88861000D01*
X91090750Y-88861000D01*
X91249500Y-88702250D01*
X91249500Y-87503000D01*
X91503500Y-87503000D01*
X91503500Y-88702250D01*
X91662250Y-88861000D01*
X92352809Y-88861000D01*
X92586198Y-88764327D01*
X92764827Y-88585699D01*
X92861500Y-88352310D01*
X92861500Y-87661750D01*
X92702750Y-87503000D01*
X91503500Y-87503000D01*
X91249500Y-87503000D01*
X90050250Y-87503000D01*
X89891500Y-87661750D01*
X83069500Y-87661750D01*
X83069500Y-84836000D01*
X89862407Y-84836000D01*
X89975446Y-85404285D01*
X90297353Y-85886054D01*
X90341277Y-85915403D01*
X90166802Y-85987673D01*
X89988173Y-86166301D01*
X89891500Y-86399690D01*
X89891500Y-87090250D01*
X90050250Y-87249000D01*
X91249500Y-87249000D01*
X91249500Y-87229000D01*
X91503500Y-87229000D01*
X91503500Y-87249000D01*
X92702750Y-87249000D01*
X92861500Y-87090250D01*
X92861500Y-86399690D01*
X92764827Y-86166301D01*
X92586198Y-85987673D01*
X92411723Y-85915403D01*
X92455647Y-85886054D01*
X92777554Y-85404285D01*
X92890593Y-84836000D01*
X92777554Y-84267715D01*
X92546890Y-83922500D01*
X121756060Y-83922500D01*
X121756060Y-85622500D01*
X121800338Y-85857817D01*
X121939410Y-86073941D01*
X122151610Y-86218931D01*
X122259607Y-86240801D01*
X121981855Y-86545576D01*
X121812024Y-86955610D01*
X121933345Y-87185500D01*
X123126500Y-87185500D01*
X123126500Y-87165500D01*
X123380500Y-87165500D01*
X123380500Y-87185500D01*
X124573655Y-87185500D01*
X124694976Y-86955610D01*
X124525145Y-86545576D01*
X124248999Y-86242563D01*
X124338817Y-86225662D01*
X124554941Y-86086590D01*
X124699931Y-85874390D01*
X124750940Y-85622500D01*
X124750940Y-83922500D01*
X124706662Y-83687183D01*
X124567590Y-83471059D01*
X124355390Y-83326069D01*
X124103500Y-83275060D01*
X122403500Y-83275060D01*
X122168183Y-83319338D01*
X121952059Y-83458410D01*
X121807069Y-83670610D01*
X121756060Y-83922500D01*
X92546890Y-83922500D01*
X92455647Y-83785946D01*
X91973878Y-83464039D01*
X91405593Y-83351000D01*
X91347407Y-83351000D01*
X90779122Y-83464039D01*
X90297353Y-83785946D01*
X89975446Y-84267715D01*
X89862407Y-84836000D01*
X83069500Y-84836000D01*
X83069500Y-80905295D01*
X89804716Y-80905295D01*
X90053106Y-81506443D01*
X90512637Y-81966778D01*
X91113352Y-82216216D01*
X91763795Y-82216784D01*
X92364943Y-81968394D01*
X92825278Y-81508863D01*
X93074716Y-80908148D01*
X93074829Y-80778295D01*
X120665716Y-80778295D01*
X120914106Y-81379443D01*
X121373637Y-81839778D01*
X121974352Y-82089216D01*
X122624795Y-82089784D01*
X123225943Y-81841394D01*
X123686278Y-81381863D01*
X123935716Y-80781148D01*
X123936284Y-80130705D01*
X123687894Y-79529557D01*
X123228363Y-79069222D01*
X122627648Y-78819784D01*
X121977205Y-78819216D01*
X121376057Y-79067606D01*
X120915722Y-79527137D01*
X120666284Y-80127852D01*
X120665716Y-80778295D01*
X93074829Y-80778295D01*
X93075284Y-80257705D01*
X92826894Y-79656557D01*
X92367363Y-79196222D01*
X91766648Y-78946784D01*
X91116205Y-78946216D01*
X90515057Y-79194606D01*
X90054722Y-79654137D01*
X89805284Y-80254852D01*
X89804716Y-80905295D01*
X83069500Y-80905295D01*
X83069500Y-72973000D01*
X126607500Y-72973000D01*
X126607500Y-129084000D01*
M02*
