G04 #@! TF.FileFunction,Soldermask,Top*
%FSLAX46Y46*%
G04 Gerber Fmt 4.6, Leading zero omitted, Abs format (unit mm)*
G04 Created by KiCad (PCBNEW 4.0.4-stable) date 07/27/17 22:09:25*
%MOMM*%
%LPD*%
G01*
G04 APERTURE LIST*
%ADD10C,0.100000*%
%ADD11R,1.600000X1.150000*%
%ADD12R,1.900000X1.650000*%
%ADD13R,1.650000X1.900000*%
%ADD14R,1.150000X1.600000*%
%ADD15R,2.100000X2.400000*%
%ADD16R,2.400000X2.000000*%
%ADD17R,1.300000X1.600000*%
%ADD18R,2.600000X6.700000*%
%ADD19R,2.550000X6.700000*%
%ADD20R,1.600000X1.300000*%
%ADD21R,1.700000X1.800000*%
%ADD22C,2.400000*%
%ADD23R,2.400000X2.100000*%
%ADD24R,2.100000X2.100000*%
%ADD25O,2.100000X2.100000*%
%ADD26R,1.780000X0.850000*%
%ADD27R,2.500000X1.875000*%
%ADD28R,2.300000X2.775000*%
%ADD29R,0.700000X1.100000*%
%ADD30R,2.000200X1.416000*%
%ADD31R,0.425400X0.425400*%
%ADD32R,1.250000X0.680000*%
%ADD33R,2.000000X2.900000*%
G04 APERTURE END LIST*
D10*
D11*
X104968000Y-102171500D03*
X106868000Y-102171500D03*
D12*
X101937500Y-110299500D03*
X104437500Y-110299500D03*
D11*
X102174000Y-108394500D03*
X104074000Y-108394500D03*
D13*
X103759000Y-84836000D03*
X103759000Y-87336000D03*
D14*
X102806500Y-103947000D03*
X102806500Y-102047000D03*
X109982000Y-91056500D03*
X109982000Y-89156500D03*
D11*
X110868500Y-102171500D03*
X108968500Y-102171500D03*
X114874000Y-99822000D03*
X116774000Y-99822000D03*
D15*
X115951000Y-84804500D03*
X115951000Y-88804500D03*
X118808500Y-84804500D03*
X118808500Y-88804500D03*
D12*
X111930500Y-109601000D03*
X109430500Y-109601000D03*
D16*
X112744000Y-120269000D03*
X108744000Y-120269000D03*
X112744000Y-122872500D03*
X108744000Y-122872500D03*
X112744000Y-125539500D03*
X108744000Y-125539500D03*
X112775500Y-128143000D03*
X108775500Y-128143000D03*
D17*
X113346500Y-84772500D03*
X110046500Y-84772500D03*
D18*
X108022500Y-79438500D03*
X103822500Y-79438500D03*
D19*
X112811200Y-114782600D03*
X108661200Y-114782600D03*
D17*
X101092000Y-103611500D03*
X101092000Y-105811500D03*
X108267500Y-89006500D03*
X108267500Y-91206500D03*
D20*
X115590500Y-102108000D03*
X113390500Y-102108000D03*
D17*
X104267000Y-89578000D03*
X104267000Y-91778000D03*
X106045000Y-91778000D03*
X106045000Y-89578000D03*
D20*
X113390500Y-103822500D03*
X115590500Y-103822500D03*
X106319500Y-93726000D03*
X104119500Y-93726000D03*
D17*
X117729000Y-104033500D03*
X117729000Y-101833500D03*
D21*
X109855000Y-106934000D03*
X112755000Y-106934000D03*
D22*
X95313500Y-90297000D03*
X91440000Y-80581500D03*
X122301000Y-80454500D03*
X123634500Y-109918500D03*
D23*
X98139000Y-105918000D03*
X94139000Y-105918000D03*
X100742500Y-84836000D03*
X96742500Y-84836000D03*
D24*
X91376500Y-87376000D03*
D25*
X91376500Y-84836000D03*
D24*
X123253500Y-84772500D03*
D25*
X123253500Y-87312500D03*
D24*
X119253000Y-109918500D03*
D25*
X119253000Y-112458500D03*
D26*
X86292500Y-87524900D03*
X86292500Y-86874900D03*
X86292500Y-86224900D03*
X86292500Y-85574900D03*
X86292500Y-84924900D03*
D27*
X85936900Y-88696800D03*
X85936900Y-83743800D03*
D28*
X83629500Y-83286600D03*
X83629500Y-89141300D03*
D26*
X86258400Y-108670400D03*
X86258400Y-108020400D03*
X86258400Y-107370400D03*
X86258400Y-106720400D03*
X86258400Y-106070400D03*
D27*
X85902800Y-109842300D03*
X85902800Y-104889300D03*
D28*
X83595400Y-104432100D03*
X83595400Y-110286800D03*
D24*
X90360500Y-108585000D03*
D25*
X90360500Y-106045000D03*
D22*
X90297000Y-102298500D03*
D29*
X106284001Y-86931500D03*
X106934000Y-86931500D03*
X107583999Y-86931500D03*
X107583999Y-84831500D03*
X106934000Y-84831500D03*
X106284001Y-84831500D03*
D30*
X106934000Y-85881500D03*
D31*
X106934000Y-85881500D03*
D32*
X104902000Y-104232199D03*
X104902000Y-104732201D03*
X104902000Y-105232200D03*
X104902000Y-105732199D03*
X104902000Y-106232201D03*
X107852002Y-106232201D03*
X107852002Y-105732199D03*
X107852002Y-105232200D03*
X107852002Y-104732201D03*
X107852002Y-104232199D03*
D33*
X106351601Y-105257600D03*
M02*
